<?xml version="1.0" encoding="utf-8"?>
<!-- Generator: Adobe Illustrator 16.0.3, SVG Export Plug-In . SVG Version: 6.00 Build 0)  -->
<!DOCTYPE svg PUBLIC "-//W3C//DTD SVG 1.1//EN" "http://www.w3.org/Graphics/SVG/1.1/DTD/svg11.dtd">
<svg version="1.1" id="Layer_1" xmlns="http://www.w3.org/2000/svg" xmlns:xlink="http://www.w3.org/1999/xlink" x="0px" y="0px"
	 width="477.396px" height="170.343px" viewBox="331.956 144.201 477.396 170.343"
	 enable-background="new 331.956 144.201 477.396 170.343" xml:space="preserve">
<rect x="-418.517" y="-158.292" display="none" fill="#3C7696" width="1724" height="691"/>
<g enable-background="new    ">
	<g enable-background="new    ">
		<g>
			<defs>
				<path id="SVGID_1_" d="M747.311,167.847c1.658-2.317,3.316-4.635,4.977-6.952c-3.592,5.017-5.367,11.932-4.973,19.875
					l-4.979,6.952C741.944,179.779,743.717,172.865,747.311,167.847z"/>
			</defs>
			<clipPath id="SVGID_2_">
				<use xlink:href="#SVGID_1_"  overflow="visible"/>
			</clipPath>
			<g clip-path="url(#SVGID_2_)" enable-background="new    ">
				<path fill="#858585" d="M747.315,180.77l-4.979,6.952c-0.393-7.943,1.381-14.857,4.975-19.875l4.977-6.952
					C748.696,165.912,746.92,172.827,747.315,180.77"/>
			</g>
		</g>
	</g>
	<g>
		<polygon fill="#808080" points="747.491,184.426 742.514,191.378 742.336,187.722 747.315,180.77 		"/>
	</g>
	<g enable-background="new    ">
		<g>
			<defs>
				<path id="SVGID_3_" d="M675.645,175.536c-1.66,2.317-3.318,4.635-4.979,6.952c-1.014,1.417-2.322,2.76-4.002,3.923l4.979-6.952
					C673.323,178.297,674.629,176.954,675.645,175.536z"/>
			</defs>
			<clipPath id="SVGID_4_">
				<use xlink:href="#SVGID_3_"  overflow="visible"/>
			</clipPath>
			<g clip-path="url(#SVGID_4_)" enable-background="new    ">
				<path fill="#858585" d="M675.645,175.536l-4.979,6.952c-1.014,1.417-2.322,2.76-4.002,3.923l4.979-6.952
					C673.323,178.297,674.629,176.954,675.645,175.536"/>
			</g>
		</g>
	</g>
	<g>
		<polygon fill="#808080" points="671.643,179.459 666.665,186.411 665.631,187.126 670.61,180.174 		"/>
	</g>
	<g enable-background="new    ">
		<g>
			<defs>
				<path id="SVGID_5_" d="M801.788,248.199c-1.658,2.317-3.318,4.635-4.977,6.953c-1.711,2.389-3.762,4.525-6.223,6.234
					l4.977-6.952C798.028,252.725,800.079,250.588,801.788,248.199z"/>
			</defs>
			<clipPath id="SVGID_6_">
				<use xlink:href="#SVGID_5_"  overflow="visible"/>
			</clipPath>
			<g clip-path="url(#SVGID_6_)" enable-background="new    ">
				<path fill="#858585" d="M801.788,248.199l-4.977,6.951c-1.711,2.391-3.762,4.527-6.225,6.235l4.979-6.952
					C798.028,252.725,800.079,250.588,801.788,248.199"/>
			</g>
		</g>
	</g>
	<g>
		<polygon fill="#808080" points="795.565,254.434 790.588,261.386 784.963,265.289 789.94,258.338 		"/>
	</g>
	<g enable-background="new    ">
		<g>
			<defs>
				<path id="SVGID_7_" d="M789.94,258.338l-4.979,6.952c-3.979,2.757-8.697,4.213-13.648,4.213c-3.639,0-7.094-0.7-10.219-2.018
					l4.979-6.953c3.125,1.318,6.58,2.02,10.217,2.02C781.245,262.552,785.961,261.095,789.94,258.338z"/>
			</defs>
			<clipPath id="SVGID_8_">
				<use xlink:href="#SVGID_7_"  overflow="visible"/>
			</clipPath>
			<g clip-path="url(#SVGID_8_)" enable-background="new    ">
				<path fill="#858585" d="M789.94,258.338l-4.979,6.952c-3.979,2.757-8.697,4.213-13.648,4.213c-3.639,0-7.094-0.7-10.219-2.018
					l4.979-6.953c3.125,1.318,6.58,2.02,10.217,2.02C781.245,262.552,785.961,261.095,789.94,258.338"/>
			</g>
		</g>
	</g>
	<g enable-background="new    ">
		<g>
			<defs>
				<path id="SVGID_9_" d="M766.073,260.533l-4.979,6.953c-3.426,1.33-7.188,2.018-11.111,2.018c-6.254,0-12.246-2.031-17.299-5.807
					l4.977-6.951c5.055,3.773,11.045,5.807,17.301,5.807C758.883,262.552,762.647,261.865,766.073,260.533z"/>
			</defs>
			<clipPath id="SVGID_10_">
				<use xlink:href="#SVGID_9_"  overflow="visible"/>
			</clipPath>
			<g clip-path="url(#SVGID_10_)" enable-background="new    ">
				<path fill="#858585" d="M766.073,260.533l-4.979,6.953c-3.426,1.33-7.188,2.018-11.111,2.018
					c-6.254,0-12.246-2.031-17.299-5.807l4.977-6.951c5.055,3.773,11.045,5.807,17.301,5.807
					C758.883,262.552,762.647,261.865,766.073,260.533"/>
			</g>
		</g>
	</g>
	<g>
		<polygon fill="#808080" points="737.661,256.746 732.684,263.697 731.186,264.729 736.163,257.779 		"/>
	</g>
	<g enable-background="new    ">
		<g>
			<defs>
				<path id="SVGID_11_" d="M599.777,174.585c1.659-2.317,3.318-4.635,4.978-6.952c-3.791,5.296-6.309,11.65-7.449,18.819
					l-4.979,6.952C593.467,186.235,595.985,179.882,599.777,174.585z"/>
			</defs>
			<clipPath id="SVGID_12_">
				<use xlink:href="#SVGID_11_"  overflow="visible"/>
			</clipPath>
			<g clip-path="url(#SVGID_12_)" enable-background="new    ">
				<path fill="#858585" d="M597.305,186.452l-4.979,6.952c1.141-7.169,3.658-13.523,7.451-18.819l4.977-6.952
					C600.961,172.93,598.444,179.283,597.305,186.452"/>
			</g>
		</g>
	</g>
	<g enable-background="new    ">
		<g>
			<defs>
				<path id="SVGID_13_" d="M736.163,257.779l-4.977,6.951c-3.342,2.314-7.1,3.807-11.18,4.439c-1.43,0.225-2.889,0.334-4.355,0.334
					c-2.639,0-5.152-0.385-7.48-1.121l4.979-6.952c2.328,0.735,4.842,1.121,7.479,1.121c1.467,0,2.928-0.11,4.357-0.335
					C729.063,261.583,732.821,260.092,736.163,257.779z"/>
			</defs>
			<clipPath id="SVGID_14_">
				<use xlink:href="#SVGID_13_"  overflow="visible"/>
			</clipPath>
			<g clip-path="url(#SVGID_14_)" enable-background="new    ">
				<path fill="#858585" d="M736.163,257.779l-4.977,6.951c-3.342,2.314-7.1,3.807-11.18,4.439c-1.43,0.225-2.889,0.334-4.355,0.334
					c-2.639,0-5.152-0.385-7.48-1.121l4.979-6.952c2.328,0.735,4.842,1.121,7.479,1.121c1.467,0,2.928-0.11,4.357-0.335
					C729.063,261.583,732.821,260.092,736.163,257.779"/>
			</g>
		</g>
	</g>
	<g enable-background="new    ">
		<g>
			<defs>
				<path id="SVGID_15_" d="M713.149,261.43l-4.979,6.952c-1.734,0.553-3.545,0.904-5.395,1.047
					c-0.633,0.048-1.273,0.074-1.912,0.074c-2.379,0-4.705-0.35-6.9-1.014l4.979-6.951c2.195,0.664,4.521,1.013,6.9,1.013
					c0.637,0,1.277-0.026,1.91-0.074C709.604,262.335,711.415,261.984,713.149,261.43z"/>
			</defs>
			<clipPath id="SVGID_16_">
				<use xlink:href="#SVGID_15_"  overflow="visible"/>
			</clipPath>
			<g clip-path="url(#SVGID_16_)" enable-background="new    ">
				<path fill="#858585" d="M713.149,261.43l-4.979,6.952c-1.734,0.553-3.545,0.904-5.395,1.047
					c-0.633,0.048-1.273,0.074-1.912,0.074c-2.379,0-4.705-0.35-6.9-1.014l4.979-6.951c2.195,0.664,4.521,1.013,6.9,1.013
					c0.637,0,1.277-0.026,1.91-0.074C709.604,262.335,711.415,261.984,713.149,261.43"/>
			</g>
		</g>
	</g>
	<g enable-background="new    ">
		<g>
			<defs>
				<path id="SVGID_17_" d="M698.942,261.539l-4.979,6.953c-2.213,0.67-4.551,1.012-6.953,1.012c-2.875,0-5.641-0.463-8.229-1.352
					l4.977-6.951c2.588,0.887,5.355,1.351,8.23,1.351C694.391,262.552,696.729,262.21,698.942,261.539z"/>
			</defs>
			<clipPath id="SVGID_18_">
				<use xlink:href="#SVGID_17_"  overflow="visible"/>
			</clipPath>
			<g clip-path="url(#SVGID_18_)" enable-background="new    ">
				<path fill="#858585" d="M698.942,261.539l-4.979,6.953c-2.213,0.67-4.551,1.012-6.953,1.012c-2.875,0-5.641-0.463-8.229-1.352
					l4.977-6.951c2.588,0.887,5.355,1.351,8.23,1.351C694.391,262.552,696.729,262.21,698.942,261.539"/>
			</g>
		</g>
	</g>
	<g>
		<polygon fill="#808080" points="625.474,238.137 620.497,245.089 620.392,242.968 625.37,236.015 		"/>
	</g>
	<g enable-background="new    ">
		<g>
			<defs>
				<path id="SVGID_19_" d="M683.76,261.201l-4.977,6.953c-2.52,0.891-5.213,1.352-7.996,1.352c-5,0-9.781-1.457-13.76-4.105
					l4.977-6.951c3.98,2.647,8.762,4.104,13.76,4.104C678.547,262.552,681.241,262.091,683.76,261.201z"/>
			</defs>
			<clipPath id="SVGID_20_">
				<use xlink:href="#SVGID_19_"  overflow="visible"/>
			</clipPath>
			<g clip-path="url(#SVGID_20_)" enable-background="new    ">
				<path fill="#858585" d="M683.76,261.201l-4.977,6.953c-2.52,0.891-5.213,1.352-7.996,1.352c-5,0-9.781-1.457-13.76-4.105
					l4.977-6.951c3.98,2.647,8.762,4.104,13.76,4.104C678.547,262.552,681.241,262.091,683.76,261.201"/>
			</g>
		</g>
	</g>
	<g enable-background="new    ">
		<g>
			<defs>
				<path id="SVGID_21_" d="M625.37,236.015l-4.978,6.952c-1.035,0.173-2.093,0.258-3.166,0.258c-0.661,0-1.323-0.034-1.979-0.097
					l4.979-6.951c0.654,0.061,1.316,0.096,1.979,0.096C623.276,236.273,624.334,236.189,625.37,236.015z"/>
			</defs>
			<clipPath id="SVGID_22_">
				<use xlink:href="#SVGID_21_"  overflow="visible"/>
			</clipPath>
			<g clip-path="url(#SVGID_22_)" enable-background="new    ">
				<path fill="#858585" d="M625.37,236.015l-4.978,6.952c-1.035,0.173-2.093,0.258-3.166,0.258c-0.661,0-1.323-0.034-1.979-0.097
					l4.979-6.951c0.654,0.061,1.316,0.096,1.979,0.096C623.276,236.273,624.334,236.189,625.37,236.015"/>
			</g>
		</g>
	</g>
	<g enable-background="new    ">
		<g>
			<defs>
				<path id="SVGID_23_" d="M662.004,258.447l-4.977,6.951c-0.578,0.535-1.205,1.036-1.889,1.508l4.979-6.953
					C660.799,259.482,661.428,258.982,662.004,258.447z"/>
			</defs>
			<clipPath id="SVGID_24_">
				<use xlink:href="#SVGID_23_"  overflow="visible"/>
			</clipPath>
			<g clip-path="url(#SVGID_24_)" enable-background="new    ">
				<path fill="#858585" d="M662.004,258.447l-4.977,6.951c-0.578,0.535-1.205,1.036-1.889,1.508l4.979-6.953
					C660.799,259.482,661.428,258.982,662.004,258.447"/>
			</g>
		</g>
	</g>
	<g>
		<polygon fill="#808080" points="660.118,259.953 655.139,266.906 649.512,270.805 654.491,263.853 		"/>
	</g>
	<g enable-background="new    ">
		<g>
			<defs>
				<path id="SVGID_25_" d="M619.607,246.199c1.659-2.317,3.318-4.635,4.978-6.953c-1.393,1.945-2.484,4.617-2.308,8.154
					c0.386,7.854,9.13,19.727,21.417,19.727c3.975,0,7.713-1.133,10.797-3.273l-4.979,6.952c-3.084,2.142-6.82,3.272-10.795,3.272
					c-12.288,0-21.033-11.873-21.418-19.726C617.124,250.816,618.215,248.142,619.607,246.199z"/>
			</defs>
			<clipPath id="SVGID_26_">
				<use xlink:href="#SVGID_25_"  overflow="visible"/>
			</clipPath>
			<g clip-path="url(#SVGID_26_)" enable-background="new    ">
				<path fill="#858585" d="M654.491,263.853l-4.979,6.952c-3.084,2.142-6.82,3.272-10.795,3.272
					c-12.287,0-21.032-11.873-21.416-19.726c-0.178-3.536,0.915-6.21,2.307-8.153l4.977-6.953c-1.392,1.945-2.483,4.617-2.307,8.154
					c0.385,7.854,9.129,19.727,21.418,19.727C647.67,267.126,651.407,265.994,654.491,263.853"/>
			</g>
		</g>
	</g>
	<g enable-background="new    ">
		<g>
			<defs>
				<path id="SVGID_27_" d="M485.587,172.469c1.659-2.317,3.318-4.635,4.978-6.952c-4.26,5.95-7.248,13.076-8.472,20.35
					l-4.978,6.952C478.339,185.544,481.327,178.419,485.587,172.469z"/>
			</defs>
			<clipPath id="SVGID_28_">
				<use xlink:href="#SVGID_27_"  overflow="visible"/>
			</clipPath>
			<g clip-path="url(#SVGID_28_)" enable-background="new    ">
				<path fill="#858585" d="M482.092,185.866l-4.978,6.952c1.225-7.274,4.212-14.399,8.472-20.35l4.978-6.952
					C486.304,171.467,483.317,178.592,482.092,185.866"/>
			</g>
		</g>
	</g>
	<g>
		<polygon fill="#808080" points="579.909,241.152 574.931,248.104 574.853,247.562 579.831,240.611 		"/>
	</g>
	<g enable-background="new    ">
		<g>
			<defs>
				<path id="SVGID_29_" d="M561.915,262.261l-4.977,6.952c-1.24,0.192-2.492,0.29-3.763,0.29c-1.972,0-5.212-0.276-8.833-1.696
					l4.977-6.952c3.623,1.42,6.861,1.696,8.833,1.696C559.422,262.552,560.675,262.455,561.915,262.261z"/>
			</defs>
			<clipPath id="SVGID_30_">
				<use xlink:href="#SVGID_29_"  overflow="visible"/>
			</clipPath>
			<g clip-path="url(#SVGID_30_)" enable-background="new    ">
				<path fill="#858585" d="M561.915,262.261l-4.977,6.952c-1.24,0.192-2.492,0.29-3.763,0.29c-1.972,0-5.212-0.276-8.833-1.696
					l4.977-6.952c3.623,1.42,6.861,1.696,8.833,1.696C559.422,262.552,560.675,262.455,561.915,262.261"/>
			</g>
		</g>
	</g>
	<g enable-background="new    ">
		<g>
			<defs>
				<path id="SVGID_31_" d="M549.318,260.855l-4.977,6.952c-2.416,1.118-5.129,1.696-7.994,1.696c-4.178,0-8.436-1.215-11.936-3.598
					l4.978-6.951c3.5,2.381,7.758,3.598,11.935,3.598C544.189,262.552,546.903,261.973,549.318,260.855z"/>
			</defs>
			<clipPath id="SVGID_32_">
				<use xlink:href="#SVGID_31_"  overflow="visible"/>
			</clipPath>
			<g clip-path="url(#SVGID_32_)" enable-background="new    ">
				<path fill="#858585" d="M549.318,260.855l-4.977,6.952c-2.416,1.118-5.129,1.696-7.994,1.696c-4.178,0-8.436-1.215-11.936-3.598
					l4.978-6.951c3.5,2.381,7.758,3.598,11.935,3.598C544.189,262.552,546.903,261.973,549.318,260.855"/>
			</g>
		</g>
	</g>
	<g enable-background="new    ">
		<g>
			<defs>
				<path id="SVGID_33_" d="M606.648,294.701c-1.659,2.317-3.317,4.635-4.978,6.953c-1.381,1.926-3.045,3.582-4.993,4.959
					l4.978-6.953C603.602,298.283,605.268,296.628,606.648,294.701z"/>
			</defs>
			<clipPath id="SVGID_34_">
				<use xlink:href="#SVGID_33_"  overflow="visible"/>
			</clipPath>
			<g clip-path="url(#SVGID_34_)" enable-background="new    ">
				<path fill="#858585" d="M606.648,294.701l-4.978,6.953c-1.381,1.926-3.045,3.582-4.993,4.959l4.978-6.953
					C603.602,298.283,605.268,296.628,606.648,294.701"/>
			</g>
		</g>
	</g>
	<g>
		<polygon fill="#808080" points="601.655,299.66 596.677,306.613 590.87,310.635 595.847,303.683 		"/>
	</g>
	<g enable-background="new    ">
		<g>
			<defs>
				<path id="SVGID_35_" d="M529.389,258.953l-4.978,6.953c-4.309,2.965-9.416,4.537-14.778,4.537
					c-7.367,0-14.074-2.511-18.896-7.068c-0.992-0.938-1.88-1.938-2.656-2.984l4.978-6.952c0.776,1.048,1.663,2.048,2.655,2.985
					c4.822,4.559,11.529,7.068,18.896,7.068C519.973,263.492,525.08,261.919,529.389,258.953z"/>
			</defs>
			<clipPath id="SVGID_36_">
				<use xlink:href="#SVGID_35_"  overflow="visible"/>
			</clipPath>
			<g clip-path="url(#SVGID_36_)" enable-background="new    ">
				<path fill="#858585" d="M529.389,258.953l-4.978,6.953c-4.309,2.965-9.416,4.537-14.778,4.537
					c-7.367,0-14.074-2.511-18.896-7.068c-0.992-0.938-1.88-1.938-2.656-2.984l4.978-6.952c0.776,1.048,1.663,2.048,2.655,2.985
					c4.822,4.559,11.529,7.068,18.896,7.068C519.973,263.492,525.08,261.919,529.389,258.953"/>
			</g>
		</g>
	</g>
	<g>
		<polygon fill="#808080" points="493.059,253.437 488.081,260.389 482.199,264.476 487.176,257.525 		"/>
	</g>
	<g enable-background="new    ">
		<g>
			<defs>
				<path id="SVGID_37_" d="M595.847,303.683l-4.978,6.952c-3.694,2.558-8.082,3.909-12.789,3.909
					c-8.045,0-15.213-3.971-19.668-10.9c-2.797-4.354-4.43-9.717-4.711-15.507c-0.385-7.753,1.033-13.858,3.236-18.925l4.977-6.951
					c-2.203,5.064-3.621,11.171-3.235,18.923c0.28,5.791,1.913,11.153,4.711,15.507c4.455,6.93,11.624,10.9,19.668,10.9
					C587.765,307.592,592.152,306.24,595.847,303.683z"/>
			</defs>
			<clipPath id="SVGID_38_">
				<use xlink:href="#SVGID_37_"  overflow="visible"/>
			</clipPath>
			<g clip-path="url(#SVGID_38_)" enable-background="new    ">
				<path fill="#858585" d="M595.847,303.683l-4.978,6.952c-3.694,2.558-8.082,3.909-12.789,3.909
					c-8.045,0-15.213-3.971-19.668-10.9c-2.797-4.354-4.43-9.717-4.711-15.507c-0.385-7.753,1.033-13.858,3.236-18.925l4.977-6.951
					c-2.203,5.064-3.621,11.171-3.235,18.923c0.28,5.791,1.913,11.153,4.711,15.507c4.455,6.93,11.624,10.9,19.668,10.9
					C587.765,307.592,592.152,306.24,595.847,303.683"/>
			</g>
		</g>
	</g>
	<g enable-background="new    ">
		<g>
			<defs>
				<path id="SVGID_39_" d="M487.176,257.525l-4.978,6.951c-4.75,3.29-10.563,5.027-16.804,5.027c-3.893,0-7.686-0.801-11.208-2.303
					l4.978-6.953c3.522,1.504,7.315,2.304,11.208,2.304C476.613,262.552,482.426,260.814,487.176,257.525z"/>
			</defs>
			<clipPath id="SVGID_40_">
				<use xlink:href="#SVGID_39_"  overflow="visible"/>
			</clipPath>
			<g clip-path="url(#SVGID_40_)" enable-background="new    ">
				<path fill="#858585" d="M487.176,257.525l-4.978,6.951c-4.75,3.29-10.563,5.027-16.804,5.027c-3.893,0-7.686-0.801-11.208-2.303
					l4.978-6.953c3.522,1.504,7.315,2.304,11.208,2.304C476.613,262.552,482.426,260.814,487.176,257.525"/>
			</g>
		</g>
	</g>
	<g enable-background="new    ">
		<g>
			<defs>
				<path id="SVGID_41_" d="M459.164,260.25l-4.978,6.951c-2.591,1.244-5.439,2.002-8.386,2.229
					c-0.624,0.048-1.27,0.073-1.907,0.073c-2.661,0-5.219-0.439-7.612-1.266l4.977-6.953c2.394,0.828,4.952,1.268,7.613,1.268
					c0.637,0,1.283-0.025,1.907-0.074C453.725,262.251,456.573,261.492,459.164,260.25z"/>
			</defs>
			<clipPath id="SVGID_42_">
				<use xlink:href="#SVGID_41_"  overflow="visible"/>
			</clipPath>
			<g clip-path="url(#SVGID_42_)" enable-background="new    ">
				<path fill="#858585" d="M459.164,260.25l-4.978,6.951c-2.591,1.244-5.439,2.002-8.386,2.229
					c-0.624,0.048-1.27,0.073-1.907,0.073c-2.661,0-5.219-0.439-7.612-1.266l4.977-6.953c2.394,0.828,4.952,1.268,7.613,1.268
					c0.637,0,1.283-0.025,1.907-0.074C453.725,262.251,456.573,261.492,459.164,260.25"/>
			</g>
		</g>
	</g>
	<g enable-background="new    ">
		<g>
			<defs>
				<path id="SVGID_43_" d="M441.258,261.285l-4.977,6.951c-2.463,0.908-5.115,1.383-7.85,1.383c-2.957,0-5.796-0.519-8.432-1.504
					l4.977-6.953c2.636,0.986,5.475,1.506,8.432,1.506C436.143,262.667,438.795,262.193,441.258,261.285z"/>
			</defs>
			<clipPath id="SVGID_44_">
				<use xlink:href="#SVGID_43_"  overflow="visible"/>
			</clipPath>
			<g clip-path="url(#SVGID_44_)" enable-background="new    ">
				<path fill="#858585" d="M441.258,261.285l-4.977,6.951c-2.463,0.908-5.115,1.383-7.85,1.383c-2.957,0-5.796-0.519-8.432-1.504
					l4.977-6.953c2.636,0.986,5.475,1.506,8.432,1.506C436.143,262.667,438.795,262.193,441.258,261.285"/>
			</g>
		</g>
	</g>
	<g enable-background="new    ">
		<g>
			<defs>
				<path id="SVGID_45_" d="M340.564,170.261c1.659-2.317,3.318-4.635,4.978-6.952c-6.223,8.691-9.198,20.527-8.512,34.467
					c0.785,16.023,6.71,25.504,11.133,30.79l-4.978,6.952c-4.423-5.286-10.349-14.768-11.133-30.791
					C331.366,190.787,334.342,178.951,340.564,170.261z"/>
			</defs>
			<clipPath id="SVGID_46_">
				<use xlink:href="#SVGID_45_"  overflow="visible"/>
			</clipPath>
			<g clip-path="url(#SVGID_46_)" enable-background="new    ">
				<path fill="#858585" d="M348.163,228.566l-4.978,6.951c-4.423-5.285-10.349-14.767-11.133-30.79
					c-0.686-13.94,2.29-25.776,8.512-34.467l4.978-6.952c-6.223,8.691-9.198,20.527-8.512,34.467
					C337.814,213.798,343.739,223.279,348.163,228.566"/>
			</g>
		</g>
	</g>
	<g enable-background="new    ">
		<g>
			<defs>
				<path id="SVGID_47_" d="M424.976,261.162l-4.977,6.953c-2.573,0.914-5.323,1.389-8.144,1.389c-4.636,0-9.649-1.209-14.043-4.025
					l4.977-6.951c4.395,2.814,9.408,4.023,14.043,4.023C419.654,262.552,422.403,262.078,424.976,261.162z"/>
			</defs>
			<clipPath id="SVGID_48_">
				<use xlink:href="#SVGID_47_"  overflow="visible"/>
			</clipPath>
			<g clip-path="url(#SVGID_48_)" enable-background="new    ">
				<path fill="#858585" d="M424.976,261.162l-4.977,6.953c-2.573,0.914-5.323,1.389-8.144,1.389c-4.636,0-9.649-1.209-14.043-4.025
					l4.977-6.951c4.395,2.814,9.408,4.023,14.043,4.023C419.654,262.552,422.403,262.078,424.976,261.162"/>
			</g>
		</g>
	</g>
	<g enable-background="new    ">
		<g>
			<defs>
				<path id="SVGID_49_" d="M354.345,232.531l-4.977,6.951c-2.321-0.885-4.438-2.23-6.183-3.965l4.978-6.951
					C349.907,230.3,352.025,231.644,354.345,232.531z"/>
			</defs>
			<clipPath id="SVGID_50_">
				<use xlink:href="#SVGID_49_"  overflow="visible"/>
			</clipPath>
			<g clip-path="url(#SVGID_50_)" enable-background="new    ">
				<path fill="#858585" d="M354.345,232.531l-4.977,6.951c-2.321-0.885-4.438-2.23-6.183-3.965l4.978-6.951
					C349.907,230.3,352.025,231.644,354.345,232.531"/>
			</g>
		</g>
	</g>
	<g>
		<polygon fill="#808080" points="402.789,258.527 397.812,265.479 396.229,266.576 401.207,259.625 		"/>
	</g>
	<g>
		<path fill="#ECECEC" d="M803.594,213.867c4.176,4.035,6.332,9.867,5.623,15.22c-1.668,8.779-5.283,19.539-13.652,25.347
			l-5.625,3.904c-3.979,2.757-8.697,4.214-13.65,4.214c-3.637,0-7.092-0.701-10.217-2.02c-3.426,1.332-7.189,2.02-11.113,2.02
			c-6.254,0-12.246-2.032-17.299-5.807l-1.498,1.033c-3.342,2.313-7.1,3.805-11.18,4.438c-1.43,0.224-2.889,0.335-4.355,0.335
			c-2.639,0-5.15-0.385-7.479-1.121c-1.734,0.553-3.545,0.904-5.396,1.047c-0.633,0.049-1.273,0.074-1.91,0.074
			c-2.379,0-4.707-0.35-6.9-1.014c-2.213,0.672-4.551,1.014-6.953,1.014c-2.875,0-5.641-0.465-8.229-1.352
			c-2.52,0.892-5.213,1.352-7.994,1.352c-5,0-9.781-1.457-13.762-4.105c-0.578,0.535-1.205,1.037-1.889,1.508l-5.625,3.899
			c-3.084,2.142-6.822,3.272-10.797,3.272c-12.287,0-21.031-11.873-21.416-19.727c-0.215-4.266,1.418-7.273,3.195-9.263
			l-0.105-2.121c-1.035,0.173-2.092,0.259-3.164,0.259c-0.662,0-1.323-0.035-1.979-0.097c-2.299,9.448-5.767,15.952-9.479,21.261
			l0.781,16.17c0.605,12.25-2.74,21.01-9.873,26.051l-5.808,4.022c-3.694,2.558-8.082,3.909-12.789,3.909
			c-8.044,0-15.213-3.971-19.668-10.9c-2.798-4.353-4.431-9.717-4.711-15.507c-0.386-7.752,1.032-13.858,3.235-18.923
			c-1.239,0.193-2.492,0.291-3.762,0.291c-1.973,0-5.212-0.277-8.834-1.695c-2.414,1.117-5.129,1.695-7.994,1.695
			c-4.177,0-8.436-1.217-11.935-3.598c-4.309,2.965-9.416,4.537-14.779,4.537c-7.367,0-14.074-2.51-18.896-7.068
			c-0.992-0.938-1.879-1.938-2.655-2.985l-5.883,4.087c-4.75,3.291-10.563,5.027-16.804,5.027c-3.893,0-7.686-0.799-11.208-2.303
			c-2.591,1.242-5.439,2.002-8.386,2.229c-0.625,0.049-1.27,0.074-1.907,0.074c-2.661,0-5.219-0.439-7.613-1.268
			c-2.463,0.91-5.115,1.383-7.85,1.383c-2.957,0-5.796-0.518-8.432-1.504c-2.573,0.914-5.322,1.389-8.144,1.389
			c-4.635,0-9.648-1.209-14.043-4.023l-1.582,1.096c-3.449,2.39-7.348,3.933-11.578,4.582c-1.465,0.224-2.972,0.338-4.474,0.338
			c-11.149,0-20.511-5.18-25.688-14.217c-2.686-4.685-4.347-10.422-5.122-17.797c-2.32-0.885-4.438-2.229-6.183-3.963
			c-4.423-5.287-10.349-14.768-11.133-30.791c-0.958-19.452,5.216-34.807,17.39-43.236l5.632-3.9
			c3.069-2.115,6.422-3.724,9.991-4.804c3.567-1.084,7.352-1.636,11.264-1.636c8.599,0,16.434,2.554,22.821,7.414
			c3.304-2.091,7.155-3.193,11.204-3.193c3.979,0,17.333,1.237,22.029,17.182c1.568,5.33,1.85,11.145,2.022,14.62
			c0.084,1.641,0.11,3.304,0.081,4.981c2.661-0.847,5.124-1.044,6.692-1.044c4.154,0,8.022,1.108,11.249,3.084
			c4.162-2.901,8.689-4.293,13.416-4.293c4.026,0,7.894,1.081,11.272,2.914c2.029-12.055,8.9-23.701,18.382-30.268l5.634-3.899
			c5.535-3.833,11.797-5.858,18.125-5.858c6.012,0,11.5,1.85,15.932,5.163c10.881,0.064,19.777,7.982,20.273,18.087l0.712,14.474
			c2.307,0.502,4.564,1.355,6.667,2.582c2.445-0.904,5.19-1.358,8.21-1.358c1.706,0,3.366,0.197,4.949,0.569
			c2.077-0.759,4.331-1.148,6.667-1.148c3.493,0,6.782,0.81,9.661,2.243c1.902-11.967,7.645-21.661,16.742-27.96l5.635-3.889
			c7.266-4.893,16.346-7.691,26.289-7.691c2.691,0,6.924,0.074,10.328,0.146c2.242-0.559,4.084-0.861,5.955-0.861
			c5.924,0,16.115,3.534,16.771,16.796c0.164,3.32-0.24,11.523-7.383,16.467l-1.033,0.714c2.217,1.072,4.332,2.575,6.182,4.578
			c2.82,0.157,6.51,1.027,10.186,3.833c5.236-3.666,11.334-5.554,17.6-5.554c3.059,0,5.959,0.624,8.525,1.752
			c1.523-0.376,3.113-0.576,4.727-0.576c2.045,0,4.025,0.277,5.885,0.793c2.504-1.295,5.311-1.969,8.248-1.969
			c2.74,0,6.918,0.589,11.061,3.48c1.98-1.041,3.205-1.617,4.471-2.084l-0.178-3.656c-0.543-11.008,3.072-20.041,9.924-24.785
			l5.631-3.899c3.463-2.396,7.58-3.66,11.924-3.66c3.975,0,17.332,1.237,22.025,17.186c1.568,5.326,1.85,11.147,2.021,14.627
			c0.496,10.08-1.176,21.319-2.738,29.21C798.893,210.299,801.454,211.796,803.594,213.867z M579.846,241.18l0.063-0.028
			l-0.078-0.541L579.846,241.18"/>
	</g>
	<g enable-background="new    ">
		<g>
			<defs>
				<path id="SVGID_51_" d="M401.207,259.625l-4.978,6.951c-3.448,2.39-7.347,3.932-11.578,4.582
					c-1.465,0.224-2.973,0.338-4.474,0.338c-11.149,0-20.51-5.18-25.688-14.217c-2.687-4.686-4.347-10.422-5.122-17.797l4.977-6.951
					c0.775,7.375,2.436,13.111,5.122,17.797c5.177,9.037,14.539,14.217,25.688,14.217c1.501,0,3.009-0.115,4.474-0.34
					C393.859,263.556,397.758,262.013,401.207,259.625z"/>
			</defs>
			<clipPath id="SVGID_52_">
				<use xlink:href="#SVGID_51_"  overflow="visible"/>
			</clipPath>
			<g clip-path="url(#SVGID_52_)" enable-background="new    ">
				<path fill="#858585" d="M401.207,259.625l-4.978,6.951c-3.448,2.39-7.347,3.932-11.578,4.582
					c-1.465,0.224-2.973,0.338-4.474,0.338c-11.149,0-20.51-5.18-25.688-14.217c-2.687-4.686-4.347-10.422-5.122-17.797l4.977-6.951
					c0.775,7.375,2.436,13.111,5.122,17.797c5.177,9.037,14.539,14.217,25.688,14.217c1.501,0,3.009-0.115,4.474-0.34
					C393.859,263.556,397.758,262.013,401.207,259.625"/>
			</g>
		</g>
	</g>
</g>
<g enable-background="new    ">
	<g enable-background="new    ">
		<g>
			<defs>
				<path id="SVGID_53_" d="M476.857,240.158c-1.927,1.324-3.854,2.647-5.78,3.973c3.635-2.498,5.26-8.278,5.916-13.783
					c0.18-1.48,0.678-2.373,1.3-2.801c1.927-1.324,3.854-2.648,5.78-3.973c-0.622,0.428-1.12,1.319-1.3,2.801
					C482.117,231.878,480.492,237.66,476.857,240.158z"/>
			</defs>
			<clipPath id="SVGID_54_">
				<use xlink:href="#SVGID_53_"  overflow="visible"/>
			</clipPath>
			<g clip-path="url(#SVGID_54_)" enable-background="new    ">
				<path fill="#4D6681" d="M476.857,240.158l-5.78,3.973c3.635-2.498,5.26-8.278,5.916-13.783c0.18-1.48,0.678-2.373,1.3-2.801
					l5.78-3.973c-0.622,0.428-1.12,1.319-1.3,2.801C482.117,231.878,480.492,237.66,476.857,240.158"/>
			</g>
		</g>
	</g>
	<g enable-background="new    ">
		<g>
			<defs>
				<path id="SVGID_55_" d="M463.566,227.313c-1.927,1.324-3.853,2.647-5.78,3.974c4.098-2.816,6.615-8.942,6.46-15.997
					c-0.057-2.631-0.777-4.183-1.89-4.183c-0.425,0-0.818,0.135-1.18,0.384l5.78-3.973c0.362-0.249,0.754-0.384,1.18-0.384
					c1.113,0,1.833,1.552,1.89,4.183C470.182,218.371,467.663,224.496,463.566,227.313z"/>
			</defs>
			<clipPath id="SVGID_56_">
				<use xlink:href="#SVGID_55_"  overflow="visible"/>
			</clipPath>
			<g clip-path="url(#SVGID_56_)" enable-background="new    ">
				<path fill="#4D6681" d="M463.566,227.313l-5.78,3.974c4.098-2.816,6.615-8.942,6.46-15.997c-0.057-2.631-0.777-4.183-1.89-4.183
					c-0.425,0-0.818,0.135-1.18,0.384l5.78-3.973c0.362-0.249,0.754-0.384,1.18-0.384c1.113,0,1.833,1.552,1.89,4.183
					C470.182,218.371,467.663,224.496,463.566,227.313"/>
			</g>
		</g>
	</g>
	<g enable-background="new    ">
		<g>
			<defs>
				<path id="SVGID_57_" d="M435.818,204.872c0.173-0.119,0.405-0.278,0.578-0.397c0.087-0.06,0.202-0.139,0.289-0.198
					c0.173-0.12,0.405-0.278,0.578-0.397c0.173-0.119,0.404-0.278,0.578-0.397c0.087-0.06,0.203-0.139,0.289-0.199
					c0.174-0.119,0.405-0.278,0.578-0.397c0.289-0.199,0.578-0.397,0.867-0.596c0.173-0.119,0.404-0.278,0.578-0.397
					c0.29-0.199,0.578-0.397,0.867-0.596c0.173-0.119,0.405-0.278,0.578-0.397c-0.289,0.199-0.47,0.446-0.464,0.736
					c0.018,0.836,0.88,1.076,0.956,4.543l-5.78,3.973c-0.076-3.467-0.938-3.707-0.956-4.542
					C435.348,205.318,435.529,205.071,435.818,204.872z"/>
			</defs>
			<clipPath id="SVGID_58_">
				<use xlink:href="#SVGID_57_"  overflow="visible"/>
			</clipPath>
			<g clip-path="url(#SVGID_58_)" enable-background="new    ">
				<path fill="#4D6681" d="M442.09,206.179l-5.78,3.973c-0.076-3.467-0.938-3.707-0.956-4.542
					c-0.006-0.291,0.175-0.538,0.464-0.737l5.78-3.973c-0.289,0.199-0.47,0.446-0.464,0.736
					C441.152,202.472,442.014,202.711,442.09,206.179"/>
			</g>
		</g>
	</g>
	<g enable-background="new    ">
		<g>
			<defs>
				<path id="SVGID_59_" d="M467.254,232.529c-1.927,1.324-3.854,2.648-5.78,3.973c-0.851,0.584-1.757,1.087-2.72,1.492l5.78-3.973
					C465.497,233.617,466.403,233.115,467.254,232.529z"/>
			</defs>
			<clipPath id="SVGID_60_">
				<use xlink:href="#SVGID_59_"  overflow="visible"/>
			</clipPath>
			<g clip-path="url(#SVGID_60_)" enable-background="new    ">
				<path fill="#4D6681" d="M467.254,232.529l-5.78,3.973c-0.851,0.584-1.757,1.087-2.72,1.492l5.78-3.973
					C465.497,233.617,466.403,233.115,467.254,232.529"/>
			</g>
		</g>
	</g>
	<g enable-background="new    ">
		<g>
			<defs>
				<path id="SVGID_61_" d="M405.343,168.711c1.927-1.324,3.854-2.648,5.78-3.973c-2.939,2.02-4.969,7.421-4.815,14.434l-5.78,3.973
					C400.374,176.132,402.404,170.731,405.343,168.711z"/>
			</defs>
			<clipPath id="SVGID_62_">
				<use xlink:href="#SVGID_61_"  overflow="visible"/>
			</clipPath>
			<g clip-path="url(#SVGID_62_)" enable-background="new    ">
				<path fill="#4D6681" d="M406.308,179.172l-5.78,3.973c-0.153-7.013,1.876-12.414,4.815-14.434l5.78-3.973
					C408.184,166.758,406.154,172.159,406.308,179.172"/>
			</g>
		</g>
	</g>
	<g enable-background="new    ">
		<g>
			<defs>
				<path id="SVGID_63_" d="M423.348,205.556c1.927-1.324,3.854-2.648,5.78-3.973c-1.242,0.853-1.066,2.388-1.441,3.759l-5.78,3.973
					C422.281,207.945,422.106,206.409,423.348,205.556z"/>
			</defs>
			<clipPath id="SVGID_64_">
				<use xlink:href="#SVGID_63_"  overflow="visible"/>
			</clipPath>
			<g clip-path="url(#SVGID_64_)" enable-background="new    ">
				<path fill="#4D6681" d="M427.687,205.343l-5.78,3.973c0.375-1.371,0.2-2.906,1.441-3.759l5.78-3.973
					C427.886,202.437,428.061,203.972,427.687,205.343"/>
			</g>
		</g>
	</g>
	<g enable-background="new    ">
		<g>
			<defs>
				<path id="SVGID_65_" d="M479.492,247.06c-1.927,1.325-3.853,2.648-5.78,3.973c-2.039,1.401-4.541,2.258-7.604,2.258
					c-4.71,0-9.336-3.19-12.329-9.016c-1.318-2.564-2.319-5.64-2.872-9.18c-0.268-1.715-0.431-3.54-0.474-5.469
					c-0.266-12.119,3.675-21.802,8.631-25.208l0,0c1.927-1.324,3.854-2.648,5.78-3.973c-4.956,3.407-8.897,13.089-8.631,25.208
					c0.042,1.928,0.205,3.752,0.473,5.469c0.553,3.539,1.554,6.615,2.873,9.18c2.993,5.824,7.619,9.016,12.329,9.016
					C474.952,249.318,477.453,248.46,479.492,247.06z"/>
			</defs>
			<clipPath id="SVGID_66_">
				<use xlink:href="#SVGID_65_"  overflow="visible"/>
			</clipPath>
			<g clip-path="url(#SVGID_66_)" enable-background="new    ">
				<path fill="#4D6681" d="M479.492,247.06l-5.78,3.973c-2.039,1.401-4.541,2.258-7.604,2.258c-4.71,0-9.336-3.19-12.329-9.016
					c-1.318-2.564-2.319-5.64-2.872-9.18c-0.268-1.715-0.431-3.54-0.474-5.469c-0.266-12.119,3.675-21.802,8.631-25.208l5.78-3.973
					c-4.956,3.407-8.897,13.089-8.631,25.208c0.042,1.928,0.205,3.752,0.473,5.469c0.553,3.539,1.554,6.615,2.873,9.18
					c2.993,5.824,7.619,9.016,12.329,9.016C474.952,249.318,477.453,248.46,479.492,247.06"/>
			</g>
		</g>
	</g>
	<g>
		<path fill="#88B6E5" d="M485.059,223.265c1.491,0,3.111,1.842,2.963,4.305c-0.439,7.287-3.548,21.748-16.135,21.748
			c-4.71,0-9.336-3.191-12.329-9.016c-1.318-2.564-2.319-5.641-2.873-9.18c-0.268-1.717-0.431-3.541-0.473-5.469
			c-0.333-15.174,5.927-26.527,12.519-26.527c4.796,0,7.815,4.898,7.973,12.069c0.194,8.842-3.943,19.36-12.171,22.823
			c1.288,4.063,3.67,7.41,8.124,7.41c6.681,0,9.247-7.77,10.115-15.057C483.04,224.164,484.018,223.265,485.059,223.265z
			 M463.361,227.451c4.218-2.752,6.823-8.962,6.666-16.132c-0.058-2.631-0.777-4.183-1.89-4.183c-4.193,0-5.189,13.145-4.908,18.164
			C463.245,226.014,463.346,226.732,463.361,227.451"/>
	</g>
	<g>
		<polygon fill="#4A637C" points="442.512,225.419 436.732,229.391 436.31,210.151 442.09,206.179 		"/>
	</g>
	<g enable-background="new    ">
		<g>
			<defs>
				<path id="SVGID_67_" d="M447.156,244.969c2.014-1.384,3.11-5.833,3.75-9.874c0.202-0.139,0.472-0.325,0.675-0.464
					c0.833-0.573,1.667-1.146,2.5-1.718c0.375-0.256,0.749-0.514,1.123-0.771c0.163-0.111,0.38-0.261,0.543-0.374
					c0.08-0.056,0.164-0.183,0.265-0.183l0.675-0.463c-0.64,4.041-1.736,8.488-3.75,9.873
					C451.202,242.188,448.891,243.777,447.156,244.969z"/>
			</defs>
			<clipPath id="SVGID_68_">
				<use xlink:href="#SVGID_67_"  overflow="visible"/>
			</clipPath>
			<g clip-path="url(#SVGID_68_)" enable-background="new    ">
				<path fill="#4D6681" d="M452.936,240.996l-5.78,3.974c2.014-1.384,3.11-5.833,3.75-9.874l5.78-3.973
					C456.046,235.164,454.95,239.613,452.936,240.996"/>
			</g>
		</g>
	</g>
	<g enable-background="new    ">
		<g>
			<defs>
				<path id="SVGID_69_" d="M407.885,175.823c1.927-1.324,3.853-2.648,5.78-3.973c0.083-0.058,0.174-0.088,0.271-0.088
					c1.371,0,2.391,3.584,2.564,11.47c0.144,6.574-1.309,22.347-2.993,27.366l-5.78,3.973c1.685-5.019,3.137-20.792,2.993-27.366
					c-0.173-7.886-1.194-11.47-2.564-11.47C408.058,175.734,407.968,175.765,407.885,175.823z"/>
			</defs>
			<clipPath id="SVGID_70_">
				<use xlink:href="#SVGID_69_"  overflow="visible"/>
			</clipPath>
			<g clip-path="url(#SVGID_70_)" enable-background="new    ">
				<path fill="#4D6681" d="M413.507,210.598l-5.78,3.973c1.685-5.019,3.137-20.792,2.993-27.366
					c-0.173-7.886-1.194-11.47-2.564-11.47c-0.098,0-0.188,0.031-0.271,0.088l5.78-3.973c0.083-0.058,0.174-0.088,0.271-0.088
					c1.371,0,2.391,3.584,2.564,11.47C416.644,189.806,415.191,205.579,413.507,210.598"/>
			</g>
		</g>
	</g>
	<g enable-background="new    ">
		<g>
			<defs>
				<path id="SVGID_71_" d="M454.32,248.027c-1.927,1.323-3.854,2.647-5.78,3.973c-1.192,0.818-2.549,1.291-4.093,1.291
					c-3.854,0-6.501-3.703-7.206-8.485l5.78-3.974c0.704,4.783,3.351,8.486,7.205,8.486
					C451.771,249.318,453.128,248.846,454.32,248.027z"/>
			</defs>
			<clipPath id="SVGID_72_">
				<use xlink:href="#SVGID_71_"  overflow="visible"/>
			</clipPath>
			<g clip-path="url(#SVGID_72_)" enable-background="new    ">
				<path fill="#4D6681" d="M454.32,248.027L448.54,252c-1.192,0.818-2.549,1.291-4.093,1.291c-3.854,0-6.501-3.703-7.206-8.485
					l5.78-3.974c0.704,4.783,3.351,8.486,7.205,8.486C451.771,249.318,453.128,248.846,454.32,248.027"/>
			</g>
		</g>
	</g>
	<g enable-background="new    ">
		<g>
			<defs>
				<path id="SVGID_73_" d="M437.292,241.066c-1.927,1.324-3.854,2.648-5.78,3.973c2.652-1.822,4.501-8.52,5.221-15.646l5.78-3.973
					C441.793,232.546,439.943,239.244,437.292,241.066z"/>
			</defs>
			<clipPath id="SVGID_74_">
				<use xlink:href="#SVGID_73_"  overflow="visible"/>
			</clipPath>
			<g clip-path="url(#SVGID_74_)" enable-background="new    ">
				<path fill="#4D6681" d="M437.292,241.066l-5.78,3.973c2.652-1.822,4.501-8.52,5.221-15.646l5.78-3.973
					C441.793,232.546,439.943,239.244,437.292,241.066"/>
			</g>
		</g>
	</g>
	<g>
		<path fill="#88B6E5" d="M443.846,200.324c2.822,0,4.673,2.388,4.736,5.255l0.666,30.354c0.023,1.076,0.121,5.498,2.348,5.498
			c2.892,0,4.321-5.449,5.091-10.309c0.553,3.541,1.554,6.615,2.873,9.181c-1.893,4.958-4.808,9.017-9.332,9.017
			c-3.854,0-6.501-3.705-7.205-8.486c-1.946,5.019-4.608,8.604-8.376,8.604c-3.507,0-6.174-2.546-7.77-6.903
			c-0.965-2.639-1.538-5.939-1.667-9.74c-0.006-0.188-0.012-0.375-0.016-0.564c-0.278-12.669,2.354-26.176,2.494-26.887
			c0.555-2.032-0.097-4.423,4.442-4.423c4.192,0,1.814,4.779,1.514,6.571c-1.348,8.846-2.174,14.101-1.954,24.143
			c0.142,6.451,1.673,9.918,4.153,9.918c3.426,0,5.825-7.77,6.669-16.133l-0.422-19.239c-0.076-3.467-0.938-3.707-0.956-4.543
			S442.647,200.324,443.846,200.324z"/>
	</g>
	<g enable-background="new    ">
		<g>
			<defs>
				<path id="SVGID_75_" d="M438.009,248.357c-1.926,1.324-3.853,2.648-5.78,3.973c-1.011,0.695-2.128,1.082-3.363,1.082
					c-3.507,0-6.174-2.547-7.77-6.904c-0.965-2.637-1.538-5.939-1.667-9.739c-0.006-0.188-0.012-0.375-0.016-0.565
					c-0.278-12.668,2.355-26.175,2.494-26.886l5.78-3.973c-0.139,0.711-2.771,14.218-2.494,26.887
					c0.004,0.189,0.009,0.379,0.016,0.564c0.129,3.801,0.702,7.102,1.667,9.74c1.596,4.356,4.263,6.903,7.77,6.903
					C435.881,249.437,436.997,249.052,438.009,248.357z"/>
			</defs>
			<clipPath id="SVGID_76_">
				<use xlink:href="#SVGID_75_"  overflow="visible"/>
			</clipPath>
			<g clip-path="url(#SVGID_76_)" enable-background="new    ">
				<path fill="#4D6681" d="M438.009,248.357l-5.78,3.973c-1.011,0.695-2.128,1.082-3.363,1.082c-3.507,0-6.174-2.547-7.77-6.904
					c-0.965-2.637-1.538-5.939-1.667-9.739c-0.006-0.188-0.012-0.375-0.016-0.565c-0.278-12.668,2.355-26.175,2.494-26.886
					l5.78-3.973c-0.139,0.711-2.771,14.218-2.494,26.887c0.004,0.189,0.009,0.379,0.016,0.564c0.129,3.801,0.702,7.102,1.667,9.74
					c1.596,4.356,4.263,6.903,7.77,6.903C435.881,249.437,436.997,249.052,438.009,248.357"/>
			</g>
		</g>
	</g>
	<g enable-background="new    ">
		<g>
			<defs>
				<path id="SVGID_77_" d="M420.725,240.757c-1.927,1.324-3.854,2.648-5.78,3.973c1.998-1.373,3.549-4.645,4.485-7.962l5.78-3.974
					C424.273,236.113,422.722,239.384,420.725,240.757z"/>
			</defs>
			<clipPath id="SVGID_78_">
				<use xlink:href="#SVGID_77_"  overflow="visible"/>
			</clipPath>
			<g clip-path="url(#SVGID_78_)" enable-background="new    ">
				<path fill="#4D6681" d="M420.725,240.757l-5.78,3.973c1.998-1.373,3.549-4.645,4.485-7.962l5.78-3.974
					C424.273,236.113,422.722,239.384,420.725,240.757"/>
			</g>
		</g>
	</g>
	<g>
		<polygon fill="#4A637C" points="407.501,233.544 401.721,237.517 400.528,183.145 406.308,179.172 		"/>
	</g>
	<g enable-background="new    ">
		<g>
			<defs>
				<path id="SVGID_79_" d="M422.353,247.889c-1.927,1.325-3.854,2.649-5.78,3.974c-1.306,0.897-2.77,1.428-4.404,1.428
					c-6.591,0-10.242-6.334-10.449-15.772l5.78-3.974c0.207,9.439,3.857,15.773,10.448,15.773
					C419.583,249.318,421.047,248.787,422.353,247.889z"/>
			</defs>
			<clipPath id="SVGID_80_">
				<use xlink:href="#SVGID_79_"  overflow="visible"/>
			</clipPath>
			<g clip-path="url(#SVGID_80_)" enable-background="new    ">
				<path fill="#4D6681" d="M422.353,247.889l-5.78,3.974c-1.306,0.897-2.77,1.428-4.404,1.428c-6.591,0-10.242-6.334-10.449-15.772
					l5.78-3.974c0.207,9.439,3.857,15.773,10.448,15.773C419.583,249.318,421.047,248.787,422.353,247.889"/>
			</g>
		</g>
	</g>
	<g>
		<path fill="#88B6E5" d="M425.209,232.794c0.129,3.801,0.702,7.102,1.667,9.74c-2.128,3.795-5.049,6.785-8.927,6.785
			c-6.591,0-10.242-6.336-10.448-15.773l-1.193-54.373c-0.196-8.965,3.176-15.297,7.455-15.297c7.537,0,7.898,12.546,8.045,19.24
			c0.385,17.565-6.875,41.704-7.958,43.139l0.152,6.931c0.105,4.779,1.551,8.246,4.717,8.246
			C421.688,241.431,423.98,237.154,425.209,232.794z M412.76,176.541l0.747,34.057c1.685-5.019,3.137-20.792,2.993-27.366
			c-0.173-7.886-1.194-11.47-2.564-11.47C412.997,171.762,412.718,174.629,412.76,176.541"/>
	</g>
</g>
<g enable-background="new    ">
	<g enable-background="new    ">
		<g>
			<defs>
				<path id="SVGID_81_" d="M364.565,181.871c1.927-1.324,3.854-2.648,5.78-3.973c-0.521,0.358-0.858,0.933-0.843,1.63
					c0.019,0.836,0.376,1.555,0.426,3.823l-5.78,3.973c-0.05-2.268-0.408-2.987-0.427-3.823
					C363.707,182.804,364.044,182.229,364.565,181.871z"/>
			</defs>
			<clipPath id="SVGID_82_">
				<use xlink:href="#SVGID_81_"  overflow="visible"/>
			</clipPath>
			<g clip-path="url(#SVGID_82_)" enable-background="new    ">
				<path fill="#4D6681" d="M369.929,183.351l-5.78,3.973c-0.05-2.268-0.408-2.987-0.427-3.823c-0.015-0.697,0.322-1.271,0.843-1.63
					l5.78-3.973c-0.521,0.358-0.858,0.933-0.843,1.63C369.521,180.364,369.879,181.083,369.929,183.351"/>
			</g>
		</g>
	</g>
	<g enable-background="new    ">
		<g>
			<defs>
				<path id="SVGID_83_" d="M387.731,205.87c-1.927,1.324-3.853,2.648-5.78,3.973c3.803-2.614,7.515-8.121,7.278-18.932
					c-0.199-9.083-4.6-18.404-15.131-18.404c-3.911,0-7.138,1.02-9.748,2.813l0,0c1.927-1.324,3.854-2.648,5.78-3.973
					c2.609-1.793,5.837-2.813,9.748-2.813c10.531,0,14.932,9.322,15.131,18.404C395.247,197.749,391.534,203.257,387.731,205.87z"/>
			</defs>
			<clipPath id="SVGID_84_">
				<use xlink:href="#SVGID_83_"  overflow="visible"/>
			</clipPath>
			<g clip-path="url(#SVGID_84_)" enable-background="new    ">
				<path fill="#4D6681" d="M387.731,205.87l-5.78,3.973c3.803-2.614,7.515-8.121,7.278-18.932
					c-0.199-9.083-4.6-18.404-15.131-18.404c-3.911,0-7.138,1.02-9.748,2.813l5.78-3.973c2.609-1.793,5.837-2.813,9.748-2.813
					c10.531,0,14.932,9.322,15.131,18.404C395.247,197.749,391.534,203.257,387.731,205.87"/>
			</g>
		</g>
	</g>
	<g enable-background="new    ">
		<g>
			<defs>
				<path id="SVGID_85_" d="M389.377,241.945c-1.927,1.324-3.854,2.648-5.78,3.973c2.791-1.918,4.565-6.041,4.456-11.03
					c-0.236-10.754-6.216-13.981-11.608-13.981c-1.418,0-2.93-7.584-1.163-8.799l5.78-3.973c-1.767,1.215-0.255,8.799,1.163,8.799
					c5.392,0,11.372,3.228,11.608,13.98C393.942,235.904,392.168,240.027,389.377,241.945z"/>
			</defs>
			<clipPath id="SVGID_86_">
				<use xlink:href="#SVGID_85_"  overflow="visible"/>
			</clipPath>
			<g clip-path="url(#SVGID_86_)" enable-background="new    ">
				<path fill="#4D6681" d="M389.377,241.945l-5.78,3.973c2.791-1.918,4.565-6.041,4.456-11.03
					c-0.236-10.754-6.216-13.981-11.608-13.981c-1.418,0-2.93-7.584-1.163-8.799l5.78-3.973c-1.767,1.215-0.255,8.799,1.163,8.799
					c5.392,0,11.372,3.228,11.608,13.98C393.942,235.904,392.168,240.027,389.377,241.945"/>
			</g>
		</g>
	</g>
	<g>
		<polygon fill="#4A637C" points="370.881,226.732 365.101,230.703 364.149,187.324 369.929,183.351 		"/>
	</g>
	<g enable-background="new    ">
		<g>
			<defs>
				<path id="SVGID_87_" d="M363.149,219.724c-0.289,0.199-0.578,0.397-0.867,0.596c-1.638,1.126-3.275,2.251-4.913,3.376
					c-0.233,0.16-0.475,0.25-0.724,0.25c-0.335,0-0.684-0.162-1.04-0.529l5.78-3.973c0.356,0.368,0.705,0.53,1.04,0.53
					C362.674,219.974,362.916,219.885,363.149,219.724z"/>
			</defs>
			<clipPath id="SVGID_88_">
				<use xlink:href="#SVGID_87_"  overflow="visible"/>
			</clipPath>
			<g clip-path="url(#SVGID_88_)" enable-background="new    ">
				<path fill="#4D6681" d="M363.149,219.724l-5.78,3.973c-0.233,0.16-0.475,0.25-0.724,0.25c-0.335,0-0.684-0.162-1.04-0.529
					l5.78-3.973c0.356,0.368,0.705,0.53,1.04,0.53C362.674,219.974,362.916,219.885,363.149,219.724"/>
			</g>
		</g>
	</g>
	<g enable-background="new    ">
		<g>
			<defs>
				<path id="SVGID_89_" d="M361.695,167.238c1.926-1.324,3.853-2.648,5.78-3.973c-8.25,5.67-13.186,17.534-12.842,33.231
					c0.307,13.984,5.346,21.151,6.752,22.947l-5.78,3.972c-1.406-1.794-6.445-8.961-6.751-22.946
					C348.509,184.772,353.445,172.909,361.695,167.238z"/>
			</defs>
			<clipPath id="SVGID_90_">
				<use xlink:href="#SVGID_89_"  overflow="visible"/>
			</clipPath>
			<g clip-path="url(#SVGID_90_)" enable-background="new    ">
				<path fill="#4D6681" d="M361.385,219.444l-5.78,3.973c-1.406-1.795-6.445-8.962-6.751-22.947
					c-0.345-15.698,4.591-27.561,12.841-33.232l5.78-3.973c-8.25,5.67-13.186,17.534-12.842,33.231
					C354.94,210.481,359.979,217.648,361.385,219.444"/>
			</g>
		</g>
	</g>
	<g enable-background="new    ">
		<g>
			<defs>
				<path id="SVGID_91_" d="M392.818,249.201c-1.927,1.326-3.854,2.648-5.78,3.974c-2.015,1.385-4.333,2.147-6.841,2.147
					c-11.22,0-14.773-9.918-15.096-24.619l5.78-3.973c0.322,14.7,3.876,24.619,15.096,24.619
					C388.484,251.349,390.803,250.585,392.818,249.201z"/>
			</defs>
			<clipPath id="SVGID_92_">
				<use xlink:href="#SVGID_91_"  overflow="visible"/>
			</clipPath>
			<g clip-path="url(#SVGID_92_)" enable-background="new    ">
				<path fill="#4D6681" d="M392.818,249.201l-5.78,3.974c-2.015,1.385-4.333,2.147-6.841,2.147
					c-11.22,0-14.773-9.918-15.096-24.619l5.78-3.973c0.322,14.7,3.876,24.619,15.096,24.619
					C388.484,251.349,390.803,250.585,392.818,249.201"/>
			</g>
		</g>
	</g>
	<g>
		<path fill="#88B6E5" d="M379.596,159.572c12.929,0,21.627,10.158,22,27.126c0.286,13.025-4.331,21.032-10.481,25.695
			c5.012,2.031,9.165,8.006,9.39,18.28c0.262,11.953-6.052,20.676-14.527,20.676c-11.22,0-14.774-9.918-15.096-24.619l-0.953-43.379
			c-0.05-2.268-0.408-2.987-0.426-3.823c-0.026-1.196,0.983-2.032,2.182-2.032c2.823,0,4.845,2.391,4.908,5.259l0.973,44.335
			c0.251,11.474,3.092,16.013,8.145,16.013c4.792,0,8.274-5.259,8.122-12.189c-0.236-10.753-6.216-13.98-11.608-13.98
			c-1.542,0-3.194-8.962-0.625-8.962c4.021,0,13.79-3.704,13.41-21.032c-0.199-9.083-4.6-18.404-15.131-18.404
			c-13.785,0-19.075,12.666-18.755,27.246c0.231,10.518,3.396,14.221,3.575,14.581c0.148-0.057,0.283-0.084,0.404-0.084
			c0.637,0,0.896,0.751,0.917,1.756c0.041,1.85-1.536,7.94-3.594,7.94c-0.335,0-0.684-0.162-1.04-0.53
			c-1.406-1.795-6.445-8.962-6.752-22.947C354.143,174.149,364.354,159.572,379.596,159.572z"/>
	</g>
</g>
<g enable-background="new    ">
	<g enable-background="new    ">
		<g>
			<defs>
				<path id="SVGID_93_" d="M579.276,204.698c1.928-1.325,3.854-2.649,5.78-3.973c-0.521,0.358-0.858,0.933-0.843,1.63
					c0.019,0.836,0.377,1.552,0.427,3.823l-5.78,3.973c-0.05-2.271-0.408-2.987-0.426-3.823
					C578.418,205.631,578.754,205.056,579.276,204.698z"/>
			</defs>
			<clipPath id="SVGID_94_">
				<use xlink:href="#SVGID_93_"  overflow="visible"/>
			</clipPath>
			<g clip-path="url(#SVGID_94_)" enable-background="new    ">
				<path fill="#4D6681" d="M584.64,206.179l-5.78,3.973c-0.05-2.271-0.408-2.987-0.426-3.823c-0.016-0.697,0.32-1.272,0.842-1.63
					l5.78-3.973c-0.521,0.358-0.858,0.933-0.843,1.63C584.232,203.191,584.59,203.907,584.64,206.179"/>
			</g>
		</g>
	</g>
	<g enable-background="new    ">
		<g>
			<defs>
				<path id="SVGID_95_" d="M565.897,205.556c1.928-1.324,3.854-2.648,5.78-3.973c-1.241,0.853-1.065,2.388-1.44,3.759l-5.781,3.973
					C564.831,207.945,564.657,206.409,565.897,205.556z"/>
			</defs>
			<clipPath id="SVGID_96_">
				<use xlink:href="#SVGID_95_"  overflow="visible"/>
			</clipPath>
			<g clip-path="url(#SVGID_96_)" enable-background="new    ">
				<path fill="#4D6681" d="M570.237,205.343l-5.781,3.973c0.375-1.371,0.199-2.906,1.44-3.759l5.78-3.973
					C570.436,202.437,570.612,203.972,570.237,205.343"/>
			</g>
		</g>
	</g>
	<g enable-background="new    ">
		<g>
			<defs>
				<path id="SVGID_97_" d="M531.308,171.052c1.927-1.324,3.854-2.648,5.78-3.973c-0.291,0.2-0.472,0.448-0.466,0.739
					c0.018,0.836,0.88,1.076,0.956,4.54l-5.78,3.973c-0.076-3.463-0.938-3.703-0.956-4.54
					C530.836,171.5,531.017,171.252,531.308,171.052z"/>
			</defs>
			<clipPath id="SVGID_98_">
				<use xlink:href="#SVGID_97_"  overflow="visible"/>
			</clipPath>
			<g clip-path="url(#SVGID_98_)" enable-background="new    ">
				<path fill="#4D6681" d="M537.578,172.358l-5.78,3.973c-0.076-3.463-0.938-3.703-0.956-4.54
					c-0.006-0.291,0.175-0.539,0.466-0.739l5.78-3.973c-0.291,0.2-0.472,0.448-0.466,0.739
					C536.64,168.654,537.502,168.894,537.578,172.358"/>
			</g>
		</g>
	</g>
	<g>
		<polygon fill="#4A637C" points="585.062,225.419 579.282,229.391 578.86,210.151 584.64,206.179 		"/>
	</g>
	<g enable-background="new    ">
		<g>
			<defs>
				<path id="SVGID_99_" d="M594.797,229.095c1.928-1.324,3.854-2.648,5.781-3.973c-0.586,0.402-1.056,1.482-1.406,3.404
					c-1.531,8.241-4.141,14.219-7.12,19l-5.78,3.973c2.979-4.779,5.588-10.758,7.12-19
					C593.745,230.578,594.213,229.496,594.797,229.095z"/>
			</defs>
			<clipPath id="SVGID_100_">
				<use xlink:href="#SVGID_99_"  overflow="visible"/>
			</clipPath>
			<g clip-path="url(#SVGID_100_)" enable-background="new    ">
				<path fill="#4D6681" d="M592.052,247.527l-5.78,3.973c2.979-4.779,5.588-10.758,7.12-19c0.351-1.922,0.819-3.002,1.405-3.404
					l5.779-3.973c-0.584,0.402-1.055,1.482-1.404,3.404C597.641,236.768,595.032,242.746,592.052,247.527"/>
			</g>
		</g>
	</g>
	<g enable-background="new    ">
		<g>
			<defs>
				<path id="SVGID_101_" d="M579.843,241.068l-5.78,3.973c2.65-1.821,4.5-8.52,5.219-15.648l5.78-3.973
					C584.342,232.547,582.493,239.246,579.843,241.068z"/>
			</defs>
			<clipPath id="SVGID_102_">
				<use xlink:href="#SVGID_101_"  overflow="visible"/>
			</clipPath>
			<g clip-path="url(#SVGID_102_)" enable-background="new    ">
				<path fill="#4D6681" d="M579.843,241.068l-5.78,3.973c2.65-1.821,4.5-8.52,5.219-15.648l5.78-3.973
					C584.342,232.547,582.493,239.246,579.843,241.068"/>
			</g>
		</g>
	</g>
	<g enable-background="new    ">
		<g>
			<defs>
				<path id="SVGID_103_" d="M545.605,204.24c1.927-1.325,3.854-2.649,5.78-3.973c-2.471,1.698-4.654,5.091-6.493,8.779l-5.78,3.973
					C540.951,209.33,543.135,205.937,545.605,204.24z"/>
			</defs>
			<clipPath id="SVGID_104_">
				<use xlink:href="#SVGID_103_"  overflow="visible"/>
			</clipPath>
			<g clip-path="url(#SVGID_104_)" enable-background="new    ">
				<path fill="#4D6681" d="M544.892,209.046l-5.78,3.973c1.839-3.688,4.023-7.082,6.493-8.779l5.78-3.973
					C548.915,201.964,546.731,205.358,544.892,209.046"/>
			</g>
		</g>
	</g>
	<g>
		<polygon fill="#4A637C" points="585.741,256.369 579.961,260.341 579.627,245.164 585.409,241.191 		"/>
	</g>
	<g enable-background="new    ">
		<g>
			<defs>
				<path id="SVGID_105_" d="M580.514,248.373c-1.928,1.324-3.854,2.648-5.78,3.973c-0.995,0.686-2.095,1.066-3.315,1.066
					c-3.559,0-6.252-2.621-7.84-7.092c-0.972-2.738-1.528-6.168-1.615-10.117c-0.277-12.676,2.354-26.176,2.494-26.887l5.779-3.973
					c-0.138,0.71-2.77,14.212-2.494,26.887c0.088,3.949,0.645,7.38,1.616,10.117c1.587,4.472,4.282,7.091,7.841,7.091
					C578.418,249.437,579.519,249.056,580.514,248.373z"/>
			</defs>
			<clipPath id="SVGID_106_">
				<use xlink:href="#SVGID_105_"  overflow="visible"/>
			</clipPath>
			<g clip-path="url(#SVGID_106_)" enable-background="new    ">
				<path fill="#4D6681" d="M580.514,248.373l-5.78,3.973c-0.995,0.686-2.095,1.066-3.315,1.066c-3.559,0-6.252-2.621-7.84-7.092
					c-0.972-2.738-1.528-6.168-1.615-10.117c-0.277-12.676,2.354-26.176,2.494-26.887l5.779-3.973
					c-0.138,0.71-2.77,14.212-2.494,26.887c0.088,3.949,0.645,7.38,1.616,10.117c1.587,4.472,4.282,7.091,7.841,7.091
					C578.418,249.437,579.519,249.056,580.514,248.373"/>
			</g>
		</g>
	</g>
	<g enable-background="new    ">
		<g>
			<defs>
				<path id="SVGID_107_" d="M563.103,240.757c-1.927,1.324-3.854,2.648-5.78,3.973c2.112-1.451,3.727-5.025,4.641-8.535
					l5.779-3.973C566.829,235.73,565.215,239.305,563.103,240.757z"/>
			</defs>
			<clipPath id="SVGID_108_">
				<use xlink:href="#SVGID_107_"  overflow="visible"/>
			</clipPath>
			<g clip-path="url(#SVGID_108_)" enable-background="new    ">
				<path fill="#4D6681" d="M563.103,240.757l-5.78,3.973c2.112-1.451,3.727-5.025,4.641-8.535l5.779-3.973
					C566.829,235.73,565.215,239.305,563.103,240.757"/>
			</g>
		</g>
	</g>
	<g>
		<polygon fill="#4A637C" points="586.221,278.236 580.44,282.208 580.161,269.424 585.94,265.451 		"/>
	</g>
	<g enable-background="new    ">
		<g>
			<defs>
				<path id="SVGID_109_" d="M547.631,211.107c-0.428,0-0.932,0.166-1.48,0.543l5.78-3.973c0.549-0.377,1.052-0.543,1.479-0.543
					c1.627,0,2.785,2.031,2.852,5.019c0.24,10.994-7.641,14.817-7.559,18.521c0.172,7.89,4.862,18.646,11.625,18.646
					c1.633,0,3.099-0.531,4.404-1.43l-5.779,3.973c-1.308,0.898-2.771,1.43-4.406,1.43c-6.762,0-11.451-10.754-11.625-18.645
					c-0.082-3.703,7.8-7.527,7.559-18.521C550.417,213.139,549.258,211.107,547.631,211.107z"/>
			</defs>
			<clipPath id="SVGID_110_">
				<use xlink:href="#SVGID_109_"  overflow="visible"/>
			</clipPath>
			<g clip-path="url(#SVGID_110_)" enable-background="new    ">
				<path fill="#4D6681" d="M564.732,247.889l-5.78,3.974c-1.307,0.897-2.771,1.428-4.404,1.428
					c-6.762,0-11.451-10.754-11.625-18.644c-0.082-3.704,7.8-7.526,7.559-18.521c-0.065-2.988-1.224-5.019-2.851-5.019
					c-0.428,0-0.932,0.166-1.48,0.543l5.78-3.973c0.549-0.377,1.052-0.543,1.479-0.543c1.627,0,2.785,2.031,2.852,5.019
					c0.24,10.994-7.641,14.817-7.559,18.521c0.172,7.89,4.862,18.646,11.625,18.646
					C561.961,249.318,563.426,248.787,564.732,247.889"/>
			</g>
		</g>
	</g>
	<g enable-background="new    ">
		<g>
			<defs>
				<path id="SVGID_111_" d="M584.818,287.435l-5.78,3.973c1.849-1.27,1.447-7.176,1.402-9.199l5.78-3.973
					C586.265,280.259,586.667,286.166,584.818,287.435z"/>
			</defs>
			<clipPath id="SVGID_112_">
				<use xlink:href="#SVGID_111_"  overflow="visible"/>
			</clipPath>
			<g clip-path="url(#SVGID_112_)" enable-background="new    ">
				<path fill="#4D6681" d="M584.818,287.435l-5.78,3.973c1.849-1.27,1.447-7.176,1.402-9.199l5.78-3.973
					C586.265,280.259,586.667,286.166,584.818,287.435"/>
			</g>
		</g>
	</g>
	<g>
		<polygon fill="#4A637C" points="539.151,244.059 533.371,248.033 531.798,176.33 537.578,172.358 		"/>
	</g>
	<g enable-background="new    ">
		<g>
			<defs>
				<path id="SVGID_113_" d="M544.605,248.98c-1.927,1.324-3.854,2.648-5.78,3.973c-0.313,0.215-0.714,0.338-1.228,0.338
					c-1.713,0-4.129-0.836-4.227-5.258l5.78-3.974c0.097,4.423,2.513,5.259,4.226,5.259
					C543.891,249.318,544.292,249.195,544.605,248.98z"/>
			</defs>
			<clipPath id="SVGID_114_">
				<use xlink:href="#SVGID_113_"  overflow="visible"/>
			</clipPath>
			<g clip-path="url(#SVGID_114_)" enable-background="new    ">
				<path fill="#4D6681" d="M544.605,248.98l-5.78,3.973c-0.313,0.215-0.714,0.338-1.228,0.338c-1.713,0-4.129-0.836-4.227-5.258
					l5.78-3.974c0.097,4.423,2.513,5.259,4.226,5.259C543.891,249.318,544.292,249.195,544.605,248.98"/>
			</g>
		</g>
	</g>
	<g>
		<path fill="#88B6E5" d="M539.334,166.503c2.826,0,4.677,2.391,4.74,5.259l0.818,37.284c2.622-5.258,5.944-9.917,9.799-9.917
			c5.306,0,7.755,6.214,7.902,12.905c0.202,9.202-4.441,16.013-7.791,19.479c0.969,5.137,2.958,9.918,6.294,9.918
			c3.1,0,5.461-4.66,6.646-9.209c0.086,3.956,0.644,7.387,1.615,10.124c-2.137,3.886-5.089,6.972-9.031,6.972
			c-6.762,0-11.451-10.754-11.625-18.645c-0.08-3.703,7.801-7.526,7.56-18.521c-0.065-2.987-1.224-5.019-2.851-5.019
			c-2.057,0-5.826,3.823-8.2,16.489l0.452,20.556c0.049,2.271,0.197,5.14-2.287,5.14c-1.713,0-4.129-0.836-4.226-5.26l-1.573-71.701
			c-0.076-3.464-0.938-3.704-0.956-4.54S538.135,166.503,539.334,166.503z"/>
	</g>
	<g>
		<path fill="#88B6E5" d="M601.149,224.939c1.37,0,3.053,2.631,3.102,4.899c0.002,0.12,0.016,0.72-0.06,1.196
			c-2.604,13.86-7.417,20.912-11.919,26.531l0.454,20.672c0.274,12.549-4.164,16.967-8.532,16.967c-4.791,0-8.352-6.09-8.52-13.74
			c-0.266-12.07,4.564-18.165,10.066-25.096l-0.334-15.176c-1.951,4.779-4.529,8.245-8.209,8.245c-3.559,0-6.252-2.62-7.841-7.091
			c-0.972-2.736-1.528-6.168-1.616-10.117c-0.275-12.675,2.355-26.176,2.494-26.887c0.555-2.032-0.097-4.423,4.443-4.423
			c4.191,0,1.816,4.779,1.514,6.571c-1.348,8.846-2.174,14.101-1.953,24.143c0.141,6.451,1.672,9.918,4.156,9.918
			c3.422,0,5.821-7.77,6.666-16.133l-0.422-19.239c-0.051-2.271-0.408-2.987-0.428-3.823c-0.025-1.196,0.984-2.032,2.184-2.032
			c2.826,0,4.674,2.388,4.736,5.255l0.92,41.947c2.979-4.779,5.588-10.758,7.121-19
			C599.631,226.014,600.293,224.939,601.149,224.939z M584.03,287.678c2.74,0,2.24-7.17,2.19-9.44l-0.28-12.787
			c-2.654,3.943-4.439,8.486-4.281,15.656C581.741,284.81,582.659,287.678,584.03,287.678"/>
	</g>
	<g enable-background="new    ">
		<g>
			<defs>
				<path id="SVGID_115_" d="M587.782,294.08c-0.675,0.463-1.35,0.927-2.023,1.391c-1.252,0.861-2.506,1.723-3.758,2.583
					c-1.129,0.776-2.36,1.125-3.586,1.125c-4.791,0-8.352-6.091-8.52-13.742c-0.266-12.069,4.564-18.164,10.066-25.095l5.779-3.973
					c-5.5,6.931-10.33,13.024-10.065,25.094c0.168,7.65,3.728,13.742,8.521,13.742C585.42,295.205,586.65,294.857,587.782,294.08z"
					/>
			</defs>
			<clipPath id="SVGID_116_">
				<use xlink:href="#SVGID_115_"  overflow="visible"/>
			</clipPath>
			<g clip-path="url(#SVGID_116_)" enable-background="new    ">
				<path fill="#4D6681" d="M587.782,294.08L582,298.053c-1.129,0.776-2.36,1.125-3.586,1.125c-4.791,0-8.352-6.091-8.52-13.742
					c-0.266-12.069,4.564-18.164,10.066-25.095l5.779-3.973c-5.5,6.931-10.33,13.024-10.065,25.094
					c0.168,7.65,3.728,13.742,8.521,13.742C585.42,295.205,586.65,294.857,587.782,294.08"/>
			</g>
		</g>
	</g>
</g>
<g enable-background="new    ">
	<g enable-background="new    ">
		<g>
			<defs>
				<path id="SVGID_117_" d="M519.44,193.485l-5.78,3.973c4.233-2.91,8.872-10.478,8.736-16.704
					c-0.089-4.063-1.429-6.575-4.855-6.575c-1.71,0-3.71,0.767-5.713,2.144l5.78-3.973c2.002-1.376,4.002-2.143,5.713-2.143
					c3.426,0,4.766,2.511,4.854,6.574C528.312,183.008,523.673,190.576,519.44,193.485z"/>
			</defs>
			<clipPath id="SVGID_118_">
				<use xlink:href="#SVGID_117_"  overflow="visible"/>
			</clipPath>
			<g clip-path="url(#SVGID_118_)" enable-background="new    ">
				<path fill="#4D6681" d="M519.44,193.485l-5.78,3.973c4.233-2.91,8.872-10.478,8.736-16.704
					c-0.089-4.063-1.429-6.575-4.855-6.575c-1.71,0-3.71,0.767-5.713,2.144l5.78-3.973c2.002-1.376,4.002-2.143,5.713-2.143
					c3.426,0,4.766,2.511,4.854,6.574C528.312,183.008,523.673,190.576,519.44,193.485"/>
			</g>
		</g>
	</g>
	<g enable-background="new    ">
		<g>
			<defs>
				<path id="SVGID_119_" d="M522.777,200.972c-1.927,1.324-3.854,2.648-5.78,3.973c-1.405,0.965-2.719,1.5-3.797,1.5
					c-2.998,0-4.893-4.419-4.948-6.931c-0.015-0.691,0.067-1.009,0.239-1.127c1.927-1.325,3.854-2.648,5.78-3.973
					c-0.172,0.119-0.255,0.437-0.24,1.127c0.055,2.511,1.951,6.931,4.949,6.931C520.058,202.472,521.372,201.937,522.777,200.972z"
					/>
			</defs>
			<clipPath id="SVGID_120_">
				<use xlink:href="#SVGID_119_"  overflow="visible"/>
			</clipPath>
			<g clip-path="url(#SVGID_120_)" enable-background="new    ">
				<path fill="#4D6681" d="M522.777,200.972l-5.78,3.973c-1.405,0.965-2.719,1.5-3.797,1.5c-2.998,0-4.893-4.419-4.948-6.931
					c-0.015-0.691,0.067-1.009,0.239-1.127l5.78-3.973c-0.172,0.119-0.255,0.437-0.24,1.127c0.055,2.511,1.951,6.931,4.949,6.931
					C520.058,202.472,521.372,201.937,522.777,200.972"/>
			</g>
		</g>
	</g>
	<g enable-background="new    ">
		<g>
			<defs>
				<path id="SVGID_121_" d="M519.114,240.438c-1.927,1.324-3.854,2.647-5.78,3.974c1.872-1.287,3.005-3.93,2.928-7.492
					c-0.312-14.221-21.216-14.817-21.75-39.196c-0.256-11.658,6.212-23.839,14.306-29.402c1.927-1.324,3.854-2.648,5.78-3.973
					c-8.093,5.563-14.562,17.745-14.306,29.402c0.535,24.379,21.438,24.975,21.75,39.197
					C522.12,236.507,520.987,239.152,519.114,240.438z"/>
			</defs>
			<clipPath id="SVGID_122_">
				<use xlink:href="#SVGID_121_"  overflow="visible"/>
			</clipPath>
			<g clip-path="url(#SVGID_122_)" enable-background="new    ">
				<path fill="#4D6681" d="M519.114,240.438l-5.78,3.974c1.872-1.287,3.005-3.93,2.928-7.492
					c-0.312-14.221-21.216-14.817-21.75-39.196c-0.256-11.658,6.212-23.839,14.306-29.402l5.78-3.973
					c-8.093,5.563-14.562,17.745-14.306,29.402c0.535,24.379,21.438,24.975,21.75,39.197
					C522.12,236.507,520.987,239.152,519.114,240.438"/>
			</g>
		</g>
	</g>
	<g enable-background="new    ">
		<g>
			<defs>
				<path id="SVGID_123_" d="M522.026,248.488c-1.927,1.323-3.854,2.647-5.78,3.973c-1.663,1.143-3.557,1.787-5.595,1.787
					c-7.28,0-9.361-5.26-9.377-5.976c-0.053-2.399,1.435-5.894,2.668-6.739l5.78-3.974c-1.234,0.849-2.721,4.341-2.668,6.74
					c0.016,0.716,2.097,5.976,9.377,5.976C518.469,250.273,520.364,249.63,522.026,248.488z"/>
			</defs>
			<clipPath id="SVGID_124_">
				<use xlink:href="#SVGID_123_"  overflow="visible"/>
			</clipPath>
			<g clip-path="url(#SVGID_124_)" enable-background="new    ">
				<path fill="#4D6681" d="M522.026,248.488l-5.78,3.973c-1.663,1.143-3.557,1.787-5.595,1.787c-7.28,0-9.361-5.26-9.377-5.976
					c-0.053-2.399,1.435-5.894,2.668-6.739l5.78-3.974c-1.234,0.849-2.721,4.341-2.668,6.74c0.016,0.716,2.097,5.976,9.377,5.976
					C518.469,250.273,520.364,249.63,522.026,248.488"/>
			</g>
		</g>
	</g>
	<g>
		<path fill="#88B6E5" d="M523.553,161.244c6.681,0,10.921,6.095,11.126,15.417c0.291,13.265-10.479,25.811-15.699,25.811
			c-2.998,0-4.894-4.419-4.949-6.931c-0.02-0.933,0.137-1.186,0.454-1.186c0.373,0,0.968,0.35,1.755,0.35
			c4.621,0,12.109-10.038,11.936-17.924c-0.089-4.063-1.429-6.574-4.854-6.574c-6.334,0-16.634,10.518-16.349,23.543
			c0.406,18.524,21.39,18.88,21.828,38.84c0.212,9.678-5.179,17.685-12.37,17.685c-7.28,0-9.361-5.259-9.377-5.976
			c-0.06-2.748,1.899-6.931,3.184-6.931c0.428,0,0.693,0.355,0.966,1.076c0.265,0.355,1.776,2.867,5.031,2.867
			c3.511,0,5.92-3.227,5.808-8.365c-0.312-14.222-21.215-14.818-21.75-39.197C499.946,177.976,511.908,161.244,523.553,161.244z"/>
	</g>
</g>
<g enable-background="new    ">
	<g enable-background="new    ">
		<g>
			<defs>
				<path id="SVGID_125_" d="M767.499,168.712c1.928-1.324,3.855-2.648,5.781-3.973c-2.941,2.021-4.969,7.421-4.816,14.433
					l-5.779,3.973C762.53,176.133,764.559,170.733,767.499,168.712z"/>
			</defs>
			<clipPath id="SVGID_126_">
				<use xlink:href="#SVGID_125_"  overflow="visible"/>
			</clipPath>
			<g clip-path="url(#SVGID_126_)" enable-background="new    ">
				<path fill="#4D6681" d="M768.463,179.172l-5.779,3.973c-0.154-7.012,1.875-12.412,4.814-14.433l5.781-3.973
					C770.338,166.76,768.311,172.16,768.463,179.172"/>
			</g>
		</g>
	</g>
	<g enable-background="new    ">
		<g>
			<defs>
				<path id="SVGID_127_" d="M770.042,175.824l5.781-3.973c0.084-0.058,0.174-0.089,0.271-0.089c1.367,0,2.389,3.584,2.561,11.47
					c0.145,6.574-1.309,22.347-2.996,27.366l-5.781,3.973c1.689-5.019,3.143-20.792,2.998-27.366
					c-0.174-7.886-1.195-11.47-2.561-11.47C770.217,175.734,770.125,175.765,770.042,175.824z"/>
			</defs>
			<clipPath id="SVGID_128_">
				<use xlink:href="#SVGID_127_"  overflow="visible"/>
			</clipPath>
			<g clip-path="url(#SVGID_128_)" enable-background="new    ">
				<path fill="#4D6681" d="M775.659,210.598l-5.781,3.973c1.689-5.019,3.143-20.792,2.998-27.366
					c-0.174-7.886-1.195-11.47-2.561-11.47c-0.1,0-0.189,0.031-0.273,0.089l5.781-3.973c0.084-0.058,0.174-0.089,0.271-0.089
					c1.367,0,2.389,3.584,2.561,11.47C778.799,189.806,777.346,205.579,775.659,210.598"/>
			</g>
		</g>
	</g>
	<g enable-background="new    ">
		<g>
			<defs>
				<path id="SVGID_129_" d="M782.879,240.757c-1.926,1.324-3.854,2.648-5.779,3.973c2.855-1.962,4.799-7.802,5.336-12.113
					c0.225-1.826,0.711-2.818,1.295-3.22c1.926-1.325,3.854-2.649,5.779-3.973c-0.586,0.401-1.068,1.394-1.295,3.22
					C787.678,232.955,785.735,238.794,782.879,240.757z"/>
			</defs>
			<clipPath id="SVGID_130_">
				<use xlink:href="#SVGID_129_"  overflow="visible"/>
			</clipPath>
			<g clip-path="url(#SVGID_130_)" enable-background="new    ">
				<path fill="#4D6681" d="M782.879,240.757l-5.779,3.973c2.855-1.962,4.799-7.802,5.336-12.113
					c0.225-1.826,0.711-2.818,1.295-3.221l5.779-3.973c-0.586,0.402-1.068,1.395-1.295,3.22
					C787.678,232.955,785.735,238.794,782.879,240.757"/>
			</g>
		</g>
	</g>
	<g>
		<polygon fill="#4A637C" points="769.499,226.375 763.719,230.347 762.684,183.145 768.463,179.172 		"/>
	</g>
	<g>
		<polygon fill="#4A637C" points="769.657,233.544 763.875,237.517 763.719,230.347 769.499,226.375 		"/>
	</g>
	<g>
		<path fill="#88B6E5" d="M790.188,225.207c1.588,0,3.428,3.119,3.039,5.588c-1.4,6.455-5.328,18.523-13.123,18.523
			c-4.434,0-7.535-2.867-9.154-7.615c-0.789-2.312-1.225-5.068-1.293-8.158l-0.158-7.17l-1.035-47.202
			c-0.195-8.965,3.178-15.297,7.459-15.297c7.533,0,7.895,12.546,8.041,19.24c0.385,17.565-6.879,41.705-7.961,43.138l0.152,6.932
			c0.104,4.779,1.551,8.246,4.719,8.246c3.941,0,6.688-7.529,7.342-12.789C788.524,226.145,789.319,225.207,790.188,225.207z
			 M774.913,176.541l0.746,34.057c1.689-5.019,3.141-20.792,2.998-27.366c-0.174-7.886-1.195-11.47-2.561-11.47
			C775.153,171.762,774.87,174.629,774.913,176.541"/>
	</g>
	<g enable-background="new    ">
		<g>
			<defs>
				<path id="SVGID_131_" d="M784.51,247.889c-1.928,1.324-3.854,2.647-5.781,3.974c-1.307,0.897-2.771,1.428-4.404,1.428
					c-4.432,0-7.535-2.866-9.156-7.615c-0.789-2.311-1.225-5.068-1.291-8.158l5.779-3.973c0.066,3.089,0.504,5.846,1.293,8.156
					c1.619,4.75,4.723,7.617,9.154,7.617C781.739,249.318,783.204,248.787,784.51,247.889z"/>
			</defs>
			<clipPath id="SVGID_132_">
				<use xlink:href="#SVGID_131_"  overflow="visible"/>
			</clipPath>
			<g clip-path="url(#SVGID_132_)" enable-background="new    ">
				<path fill="#4D6681" d="M784.51,247.889l-5.781,3.974c-1.307,0.897-2.771,1.428-4.404,1.428c-4.432,0-7.535-2.866-9.156-7.615
					c-0.789-2.311-1.225-5.068-1.291-8.158l5.779-3.973c0.066,3.089,0.504,5.846,1.293,8.156c1.619,4.75,4.723,7.617,9.154,7.617
					C781.739,249.318,783.204,248.787,784.51,247.889"/>
			</g>
		</g>
	</g>
	<g enable-background="new    ">
		<g>
			<defs>
				<path id="SVGID_133_" d="M763.584,240.158c-1.926,1.324-3.854,2.647-5.779,3.973c3.637-2.499,5.262-8.278,5.914-13.782
					l5.781-3.974C768.846,231.878,767.219,237.658,763.584,240.158z"/>
			</defs>
			<clipPath id="SVGID_134_">
				<use xlink:href="#SVGID_133_"  overflow="visible"/>
			</clipPath>
			<g clip-path="url(#SVGID_134_)" enable-background="new    ">
				<path fill="#4D6681" d="M763.584,240.158l-5.779,3.973c3.637-2.499,5.262-8.278,5.914-13.782l5.781-3.974
					C768.846,231.878,767.219,237.658,763.584,240.158"/>
			</g>
		</g>
	</g>
	<g enable-background="new    ">
		<g>
			<defs>
				<path id="SVGID_135_" d="M750.295,227.311c-1.926,1.324-3.854,2.647-5.779,3.974c4.1-2.817,6.611-8.942,6.459-15.995
					c-0.059-2.631-0.777-4.183-1.889-4.183c-0.426,0-0.818,0.136-1.182,0.385l0,0c1.928-1.325,3.854-2.649,5.781-3.973
					c0.361-0.249,0.756-0.384,1.182-0.384c1.109,0,1.83,1.552,1.887,4.183C756.909,218.369,754.395,224.494,750.295,227.311z"/>
			</defs>
			<clipPath id="SVGID_136_">
				<use xlink:href="#SVGID_135_"  overflow="visible"/>
			</clipPath>
			<g clip-path="url(#SVGID_136_)" enable-background="new    ">
				<path fill="#4D6681" d="M750.295,227.311l-5.779,3.974c4.1-2.817,6.611-8.942,6.459-15.995
					c-0.059-2.631-0.777-4.183-1.889-4.183c-0.426,0-0.818,0.136-1.182,0.385l5.781-3.973c0.361-0.249,0.756-0.384,1.182-0.384
					c1.109,0,1.83,1.552,1.887,4.183C756.909,218.369,754.395,224.494,750.295,227.311"/>
			</g>
		</g>
	</g>
	<g enable-background="new    ">
		<g>
			<defs>
				<path id="SVGID_137_" d="M748.202,236.501c-0.85,0.584-1.758,1.087-2.721,1.492l5.779-3.973
					c0.963-0.404,1.871-0.908,2.723-1.492C752.247,233.72,749.936,235.309,748.202,236.501z"/>
			</defs>
			<clipPath id="SVGID_138_">
				<use xlink:href="#SVGID_137_"  overflow="visible"/>
			</clipPath>
			<g clip-path="url(#SVGID_138_)" enable-background="new    ">
				<path fill="#4D6681" d="M753.981,232.529l-5.781,3.973c-0.852,0.584-1.756,1.087-2.719,1.492l5.779-3.973
					C752.223,233.617,753.129,233.115,753.981,232.529"/>
			</g>
		</g>
	</g>
	<g>
		<path fill="#88B6E5" d="M769.657,233.544c0.066,3.09,0.504,5.847,1.293,8.158c-2.428,4.276-6.287,7.615-12.334,7.615
			c-7.791,0-15.344-8.723-15.672-23.662c-0.332-15.174,5.924-26.528,12.518-26.528c4.793,0,7.813,4.898,7.969,12.069
			c0.195,8.842-3.941,19.36-12.17,22.823c1.287,4.063,3.674,7.41,8.123,7.41c6.682,0,9.252-7.771,10.115-15.058L769.657,233.544z
			 M750.088,227.451c4.223-2.752,6.822-8.962,6.666-16.132c-0.059-2.631-0.777-4.183-1.887-4.183
			c-4.197,0-5.193,13.145-4.912,18.164C749.971,226.014,750.073,226.732,750.088,227.451"/>
	</g>
	<g enable-background="new    ">
		<g>
			<defs>
				<path id="SVGID_139_" d="M737.163,229.628c-0.264-12.118,3.672-21.8,8.627-25.208l5.781-3.973
					c-4.957,3.408-8.895,13.089-8.627,25.208c0.328,14.939,7.881,23.662,15.672,23.662c3.063,0,5.564-0.857,7.604-2.259
					l-5.779,3.974c-2.041,1.401-4.543,2.258-7.605,2.258C745.045,253.291,737.491,244.568,737.163,229.628z"/>
			</defs>
			<clipPath id="SVGID_140_">
				<use xlink:href="#SVGID_139_"  overflow="visible"/>
			</clipPath>
			<g clip-path="url(#SVGID_140_)" enable-background="new    ">
				<path fill="#4D6681" d="M766.217,247.06l-5.779,3.973c-2.039,1.401-4.541,2.258-7.604,2.258
					c-7.791,0-15.344-8.723-15.672-23.662c-0.266-12.12,3.672-21.802,8.629-25.208l5.779-3.973
					c-4.957,3.407-8.895,13.089-8.627,25.208c0.326,14.939,7.881,23.662,15.67,23.662C761.678,249.318,764.18,248.46,766.217,247.06
					"/>
			</g>
		</g>
	</g>
</g>
<g enable-background="new    ">
	<g enable-background="new    ">
		<g>
			<defs>
				<path id="SVGID_141_" d="M725.206,203.403c0.963-0.663,1.928-1.325,2.891-1.986c0.963-0.662,1.926-1.325,2.891-1.987
					c-1.35,0.926-2.578,3.771-2.539,5.553c0.016,0.716,0.785,0.596,1.223,1.076l-5.779,3.973c-0.438-0.48-1.207-0.36-1.223-1.076
					C722.629,207.175,723.858,204.329,725.206,203.403z"/>
			</defs>
			<clipPath id="SVGID_142_">
				<use xlink:href="#SVGID_141_"  overflow="visible"/>
			</clipPath>
			<g clip-path="url(#SVGID_142_)" enable-background="new    ">
				<path fill="#4D6681" d="M729.67,206.058l-5.779,3.973c-0.438-0.48-1.207-0.36-1.223-1.076c-0.039-1.781,1.189-4.626,2.537-5.553
					l5.781-3.973c-1.35,0.926-2.578,3.771-2.539,5.553C728.463,205.699,729.233,205.579,729.67,206.058"/>
			</g>
		</g>
	</g>
	<g enable-background="new    ">
		<g>
			<defs>
				<path id="SVGID_143_" d="M710.438,204.698c0.963-0.662,1.928-1.325,2.891-1.986c0.963-0.662,1.926-1.325,2.889-1.987
					c-0.52,0.358-0.855,0.933-0.842,1.63c0.02,0.836,0.377,1.552,0.426,3.823l-5.779,3.973c-0.051-2.271-0.408-2.987-0.428-3.823
					C709.581,205.631,709.917,205.056,710.438,204.698z"/>
			</defs>
			<clipPath id="SVGID_144_">
				<use xlink:href="#SVGID_143_"  overflow="visible"/>
			</clipPath>
			<g clip-path="url(#SVGID_144_)" enable-background="new    ">
				<path fill="#4D6681" d="M715.801,206.179l-5.779,3.973c-0.051-2.271-0.408-2.987-0.428-3.823
					c-0.014-0.697,0.322-1.272,0.844-1.63l5.779-3.973c-0.52,0.358-0.855,0.933-0.842,1.63
					C715.395,203.191,715.752,203.907,715.801,206.179"/>
			</g>
		</g>
	</g>
	<g enable-background="new    ">
		<g>
			<defs>
				<path id="SVGID_145_" d="M661.899,162.184c-1.928,1.324-3.854,2.648-5.781,3.973c0.311-0.213,0.479-0.455,0.611-0.544
					c1.926-1.324,3.854-2.648,5.779-3.973C662.377,161.73,662.208,161.971,661.899,162.184z"/>
			</defs>
			<clipPath id="SVGID_146_">
				<use xlink:href="#SVGID_145_"  overflow="visible"/>
			</clipPath>
			<g clip-path="url(#SVGID_146_)" enable-background="new    ">
				<path fill="#4D6681" d="M661.899,162.184l-5.781,3.973c0.311-0.213,0.479-0.455,0.611-0.544l5.779-3.973
					C662.377,161.73,662.208,161.971,661.899,162.184"/>
			</g>
		</g>
	</g>
	<g>
		<polygon fill="#4A637C" points="716.256,226.919 710.477,230.893 710.022,210.151 715.801,206.179 		"/>
	</g>
	<g enable-background="new    ">
		<g>
			<defs>
				<path id="SVGID_147_" d="M707.786,206.753c-1.926,1.325-3.852,2.648-5.779,3.973c-0.143,0.097-0.316,0.142-0.529,0.142
					c-0.771,0-1.633-0.24-2.488-0.24c-1.781,0-3.631,0.581-5.373,1.778c1.928-1.324,3.854-2.648,5.781-3.973
					c1.74-1.197,3.592-1.779,5.371-1.779c0.857,0,1.719,0.24,2.488,0.24C707.469,206.894,707.645,206.85,707.786,206.753z"/>
			</defs>
			<clipPath id="SVGID_148_">
				<use xlink:href="#SVGID_147_"  overflow="visible"/>
			</clipPath>
			<g clip-path="url(#SVGID_148_)" enable-background="new    ">
				<path fill="#4D6681" d="M707.786,206.753l-5.779,3.973c-0.143,0.097-0.316,0.142-0.529,0.142c-0.771,0-1.633-0.24-2.488-0.24
					c-1.781,0-3.631,0.581-5.373,1.778l5.781-3.973c1.74-1.197,3.592-1.779,5.371-1.779c0.857,0,1.719,0.24,2.488,0.24
					C707.469,206.894,707.645,206.85,707.786,206.753"/>
			</g>
		</g>
	</g>
	<g enable-background="new    ">
		<g>
			<defs>
				<path id="SVGID_149_" d="M727.258,240.643c-1.928,1.325-3.854,2.649-5.779,3.974c3.416-2.349,6.467-9.853,6.217-21.201
					c-0.211-9.681-2.666-12.188-3.807-13.384l5.781-3.973c1.141,1.196,3.592,3.704,3.805,13.385
					C733.725,230.791,730.674,238.294,727.258,240.643z"/>
			</defs>
			<clipPath id="SVGID_150_">
				<use xlink:href="#SVGID_149_"  overflow="visible"/>
			</clipPath>
			<g clip-path="url(#SVGID_150_)" enable-background="new    ">
				<path fill="#4D6681" d="M727.258,240.643l-5.779,3.974c3.416-2.35,6.467-9.854,6.217-21.201
					c-0.211-9.681-2.666-12.188-3.807-13.384l5.781-3.973c1.141,1.196,3.592,3.704,3.805,13.385
					C733.725,230.791,730.674,238.294,727.258,240.643"/>
			</g>
		</g>
	</g>
	<g enable-background="new    ">
		<g>
			<defs>
				<path id="SVGID_151_" d="M695.178,215.331c1.928-1.324,3.854-2.648,5.779-3.973c-0.52,0.358-0.857,0.934-0.842,1.631
					c0.018,0.836,0.377,1.552,0.426,3.824l-5.779,3.973c-0.051-2.271-0.408-2.987-0.426-3.824
					C694.319,216.264,694.657,215.689,695.178,215.331z"/>
			</defs>
			<clipPath id="SVGID_152_">
				<use xlink:href="#SVGID_151_"  overflow="visible"/>
			</clipPath>
			<g clip-path="url(#SVGID_152_)" enable-background="new    ">
				<path fill="#4D6681" d="M700.542,216.813l-5.781,3.973c-0.049-2.271-0.406-2.987-0.426-3.824
					c-0.014-0.697,0.322-1.271,0.844-1.631l5.779-3.973c-0.52,0.358-0.857,0.934-0.842,1.631
					C700.133,213.825,700.491,214.541,700.542,216.813"/>
			</g>
		</g>
	</g>
	<g>
		<polygon fill="#4A637C" points="716.493,237.609 710.711,241.582 710.477,230.893 716.256,226.919 		"/>
	</g>
	<g enable-background="new    ">
		<g>
			<defs>
				<path id="SVGID_153_" d="M730.338,247.322c-1.926,1.324-3.854,2.648-5.779,3.973c-1.873,1.287-3.988,1.996-6.314,1.996
					c-3.76,0-5.842-2.479-6.822-6.123c-0.447-1.661-0.666-3.565-0.711-5.586l5.781-3.973c0.043,2.02,0.262,3.924,0.709,5.586
					c0.98,3.644,3.061,6.123,6.824,6.123C726.352,249.318,728.465,248.609,730.338,247.322z"/>
			</defs>
			<clipPath id="SVGID_154_">
				<use xlink:href="#SVGID_153_"  overflow="visible"/>
			</clipPath>
			<g clip-path="url(#SVGID_154_)" enable-background="new    ">
				<path fill="#4D6681" d="M730.338,247.322l-5.779,3.973c-1.873,1.289-3.988,1.998-6.314,1.998c-3.76,0-5.842-2.48-6.822-6.123
					c-0.447-1.662-0.666-3.566-0.711-5.588l5.781-3.973c0.043,2.021,0.262,3.926,0.709,5.588c0.98,3.643,3.061,6.123,6.824,6.123
					C726.352,249.318,728.465,248.609,730.338,247.322"/>
			</g>
		</g>
	</g>
	<g>
		<path fill="#88B6E5" d="M731.831,199.128c3.422,0,7.848,10.394,8.074,20.672c0.354,16.133-5.773,29.518-15.879,29.518
			c-3.764,0-5.844-2.48-6.824-6.123c-0.447-1.662-0.666-3.566-0.709-5.586l-0.234-10.689l-0.455-20.741
			c-0.051-2.271-0.408-2.987-0.426-3.823c-0.025-1.196,0.982-2.032,2.182-2.032c2.826,0,4.674,2.388,4.736,5.255L723,237.724
			c0.049,2.271,0.424,3.707,1.965,3.707c4.197,0,8.816-8.126,8.512-21.987c-0.213-9.682-2.666-12.189-3.805-13.385
			c-0.438-0.479-1.207-0.359-1.223-1.076C728.401,202.831,730.204,199.128,731.831,199.128z"/>
	</g>
	<g enable-background="new    ">
		<g>
			<defs>
				<path id="SVGID_155_" d="M711.838,240.996c-1.926,1.324-3.854,2.649-5.779,3.974c2.461-1.692,3.553-7.962,4.115-12.47
					c0.07-0.623,0.174-1.155,0.305-1.606l5.779-3.974c-0.131,0.451-0.232,0.984-0.305,1.607
					C715.393,233.035,714.301,239.305,711.838,240.996z"/>
			</defs>
			<clipPath id="SVGID_156_">
				<use xlink:href="#SVGID_155_"  overflow="visible"/>
			</clipPath>
			<g clip-path="url(#SVGID_156_)" enable-background="new    ">
				<path fill="#4D6681" d="M711.838,240.996l-5.779,3.974c2.461-1.692,3.553-7.962,4.115-12.47c0.07-0.623,0.174-1.155,0.305-1.606
					l5.779-3.974c-0.131,0.451-0.232,0.984-0.305,1.607C715.393,233.035,714.301,239.305,711.838,240.996"/>
			</g>
		</g>
	</g>
	<g enable-background="new    ">
		<g>
			<defs>
				<path id="SVGID_157_" d="M661.696,171.508l-5.779,3.973c-0.348,0.239-0.742,0.374-1.18,0.374c-1.199,0-7.115-0.24-11.139-0.359
					l5.779-3.973c4.025,0.12,9.939,0.36,11.139,0.36C660.956,171.882,661.348,171.746,661.696,171.508z"/>
			</defs>
			<clipPath id="SVGID_158_">
				<use xlink:href="#SVGID_157_"  overflow="visible"/>
			</clipPath>
			<g clip-path="url(#SVGID_158_)" enable-background="new    ">
				<path fill="#4D6681" d="M661.696,171.508l-5.779,3.973c-0.348,0.239-0.742,0.374-1.18,0.374c-1.199,0-7.115-0.24-11.139-0.359
					l5.779-3.973c4.025,0.12,9.939,0.36,11.139,0.36C660.956,171.882,661.348,171.746,661.696,171.508"/>
			</g>
		</g>
	</g>
	<g>
		<polygon fill="#4A637C" points="700.944,235.217 695.165,239.189 694.76,220.785 700.542,216.813 		"/>
	</g>
	<g enable-background="new    ">
		<g>
			<defs>
				<path id="SVGID_159_" d="M703.35,253.291c-2.998,0-5.354-2.031-6.697-4.898l5.779-3.973c1.344,2.867,3.699,4.898,6.697,4.898
					c1.549,0,2.914-0.477,4.115-1.302l-5.781,3.974C706.262,252.816,704.899,253.291,703.35,253.291z"/>
			</defs>
			<clipPath id="SVGID_160_">
				<use xlink:href="#SVGID_159_"  overflow="visible"/>
			</clipPath>
			<g clip-path="url(#SVGID_160_)" enable-background="new    ">
				<path fill="#4D6681" d="M713.245,248.016l-5.781,3.974c-1.201,0.826-2.564,1.301-4.113,1.301c-2.998,0-5.354-2.031-6.697-4.898
					l5.779-3.973c1.344,2.867,3.699,4.898,6.697,4.898C710.678,249.318,712.043,248.842,713.245,248.016"/>
			</g>
		</g>
	</g>
	<g enable-background="new    ">
		<g>
			<defs>
				<path id="SVGID_161_" d="M697.895,240.912c-1.928,1.324-3.854,2.647-5.779,3.973c1.416-0.975,2.402-3.201,3.049-5.695
					l5.781-3.973C700.297,237.71,699.313,239.937,697.895,240.912z"/>
			</defs>
			<clipPath id="SVGID_162_">
				<use xlink:href="#SVGID_161_"  overflow="visible"/>
			</clipPath>
			<g clip-path="url(#SVGID_162_)" enable-background="new    ">
				<path fill="#4D6681" d="M697.895,240.912l-5.779,3.973c1.416-0.975,2.402-3.201,3.049-5.695l5.781-3.973
					C700.297,237.71,699.313,239.937,697.895,240.912"/>
			</g>
		</g>
	</g>
	<g>
		<polygon fill="#4A637C" points="673.405,209.286 667.624,213.259 661.12,213.259 666.899,209.286 		"/>
	</g>
	<g>
		<polygon fill="#4A637C" points="666.899,209.286 661.12,213.259 660.176,213.259 665.958,209.286 		"/>
	</g>
	<g enable-background="new    ">
		<g>
			<defs>
				<path id="SVGID_163_" d="M625.98,179.501c1.927-1.324,3.854-2.648,5.78-3.973c3.193-2.196,6.996-3.321,10.941-3.767
					l-5.779,3.973C632.976,176.18,629.174,177.306,625.98,179.501z"/>
			</defs>
			<clipPath id="SVGID_164_">
				<use xlink:href="#SVGID_163_"  overflow="visible"/>
			</clipPath>
			<g clip-path="url(#SVGID_164_)" enable-background="new    ">
				<path fill="#4D6681" d="M642.702,171.762l-5.779,3.973c-3.946,0.446-7.748,1.572-10.942,3.767l5.78-3.973
					C634.956,173.333,638.756,172.207,642.702,171.762"/>
			</g>
		</g>
	</g>
	<g enable-background="new    ">
		<g>
			<defs>
				<path id="SVGID_165_" d="M652.84,198.61c1.926-1.324,3.854-2.648,5.779-3.973c-1.273,0.875-2.172,2.589-2.123,4.847
					c0.076,3.467,1.672,5.975,3.846,7.65l-5.779,3.973c-2.174-1.675-3.771-4.183-3.848-7.65
					C650.667,201.2,651.567,199.486,652.84,198.61z"/>
			</defs>
			<clipPath id="SVGID_166_">
				<use xlink:href="#SVGID_165_"  overflow="visible"/>
			</clipPath>
			<g clip-path="url(#SVGID_166_)" enable-background="new    ">
				<path fill="#4D6681" d="M660.342,207.135l-5.779,3.973c-2.174-1.675-3.771-4.183-3.848-7.65
					c-0.049-2.257,0.852-3.971,2.125-4.847l5.779-3.973c-1.273,0.875-2.172,2.589-2.123,4.847
					C656.573,202.951,658.168,205.459,660.342,207.135"/>
			</g>
		</g>
	</g>
	<g>
		<path fill="#88B6E5" d="M704.26,199.128c2.313,0,3.982,1.912,4.051,5.019c0.045,2.032-0.197,2.748-1.055,2.748
			c-0.77,0-1.631-0.24-2.488-0.24c-6.506,0-13.957,7.77-13.58,24.979c0.137,6.211,2.1,9.798,5.096,9.798
			c2.313,0,3.791-2.866,4.66-6.214l-0.402-18.404c-0.051-2.271-0.408-2.988-0.428-3.824c-0.025-1.195,0.982-2.032,2.18-2.032
			c2.826,0,4.676,2.392,4.74,5.259l0.432,19.716c0.059,2.631,0.979,5.498,3.033,5.498c3.426,0,4.801-7.65,5.455-12.904
			c0.072-0.623,0.174-1.156,0.305-1.607l0.234,10.689c0.043,2.02,0.262,3.924,0.709,5.586c-1.869,3.551-4.471,6.123-8.072,6.123
			c-2.998,0-5.354-2.031-6.697-4.898c-1.652,2.748-4.004,4.898-7.258,4.898c-3.684,0-6.457-2.4-8.24-6.259
			c-1.148-2.485-1.887-5.577-2.193-9.022c-0.08-0.897-0.131-1.82-0.15-2.764C684.151,211.318,693.815,199.128,704.26,199.128z"/>
	</g>
	<g enable-background="new    ">
		<g>
			<defs>
				<path id="SVGID_167_" d="M699.196,248.047c-1.928,1.323-3.854,2.647-5.781,3.973c-1.154,0.793-2.488,1.271-4.021,1.271
					c-3.684,0-6.457-2.4-8.24-6.258c-1.148-2.486-1.887-5.578-2.193-9.022c-0.08-0.897-0.129-1.821-0.15-2.763
					c-0.316-14.446,4.66-24.822,11.395-29.452c1.926-1.324,3.852-2.647,5.779-3.973c-6.734,4.628-11.711,15.005-11.395,29.45
					c0.021,0.942,0.072,1.865,0.152,2.764c0.305,3.445,1.043,6.537,2.193,9.022c1.781,3.858,4.555,6.259,8.238,6.259
					C696.708,249.318,698.042,248.84,699.196,248.047z"/>
			</defs>
			<clipPath id="SVGID_168_">
				<use xlink:href="#SVGID_167_"  overflow="visible"/>
			</clipPath>
			<g clip-path="url(#SVGID_168_)" enable-background="new    ">
				<path fill="#4D6681" d="M699.196,248.047l-5.781,3.973c-1.154,0.793-2.488,1.271-4.021,1.271c-3.684,0-6.457-2.4-8.24-6.258
					c-1.148-2.486-1.887-5.578-2.193-9.022c-0.08-0.897-0.129-1.821-0.15-2.763c-0.316-14.446,4.66-24.822,11.395-29.452
					l5.779-3.973c-6.734,4.628-11.711,15.005-11.395,29.45c0.021,0.942,0.072,1.865,0.152,2.764
					c0.305,3.445,1.043,6.537,2.193,9.022c1.781,3.858,4.555,6.259,8.238,6.259C696.708,249.318,698.042,248.84,699.196,248.047"/>
			</g>
		</g>
	</g>
	<g enable-background="new    ">
		<g>
			<defs>
				<path id="SVGID_169_" d="M681.438,240.898c-1.928,1.324-3.854,2.648-5.779,3.973c1.633-1.123,2.641-3.877,3.301-6.86
					l5.779-3.974C684.079,237.021,683.073,239.775,681.438,240.898z"/>
			</defs>
			<clipPath id="SVGID_170_">
				<use xlink:href="#SVGID_169_"  overflow="visible"/>
			</clipPath>
			<g clip-path="url(#SVGID_170_)" enable-background="new    ">
				<path fill="#4D6681" d="M681.438,240.898l-5.779,3.973c1.633-1.123,2.641-3.877,3.301-6.86l5.779-3.974
					C684.079,237.021,683.073,239.775,681.438,240.898"/>
			</g>
		</g>
	</g>
	<g enable-background="new    ">
		<g>
			<defs>
				<path id="SVGID_171_" d="M663.249,233.312c-1.926,1.324-3.854,2.648-5.779,3.973c-0.229,0.158-0.477,0.23-0.732,0.23
					c-1.609,0-3.545-2.861-3.084-5.615c0.834-4.779,0.959-14.697,0.912-20.792l5.779-3.973c0.049,6.095-0.076,16.013-0.91,20.792
					c-0.463,2.752,1.475,5.615,3.084,5.615C662.772,233.541,663.02,233.469,663.249,233.312z"/>
			</defs>
			<clipPath id="SVGID_172_">
				<use xlink:href="#SVGID_171_"  overflow="visible"/>
			</clipPath>
			<g clip-path="url(#SVGID_172_)" enable-background="new    ">
				<path fill="#4D6681" d="M663.249,233.312l-5.779,3.973c-0.229,0.158-0.477,0.23-0.732,0.23c-1.609,0-3.545-2.861-3.084-5.615
					c0.834-4.779,0.959-14.697,0.912-20.792l5.779-3.973c0.049,6.095-0.076,16.013-0.91,20.792
					c-0.463,2.752,1.475,5.615,3.084,5.615C662.772,233.541,663.02,233.469,663.249,233.312"/>
			</g>
		</g>
	</g>
	<g enable-background="new    ">
		<g>
			<defs>
				<path id="SVGID_173_" d="M682.913,248.027c-1.926,1.323-3.854,2.647-5.779,3.973c-1.191,0.818-2.549,1.291-4.092,1.291
					c-4.025,0-8.885-3.106-9.117-13.621c-0.166-7.65,1.186-16.137,3.699-26.411l5.781-3.973c-2.516,10.274-3.867,18.759-3.699,26.41
					c0.23,10.516,5.09,13.623,9.117,13.623C680.366,249.318,681.721,248.846,682.913,248.027z"/>
			</defs>
			<clipPath id="SVGID_174_">
				<use xlink:href="#SVGID_173_"  overflow="visible"/>
			</clipPath>
			<g clip-path="url(#SVGID_174_)" enable-background="new    ">
				<path fill="#4D6681" d="M682.913,248.027L677.133,252c-1.191,0.818-2.549,1.291-4.092,1.291c-4.025,0-8.885-3.106-9.117-13.621
					c-0.166-7.65,1.186-16.137,3.699-26.411l5.781-3.973c-2.516,10.274-3.867,18.759-3.699,26.41
					c0.23,10.516,5.09,13.623,9.117,13.623C680.366,249.318,681.721,248.846,682.913,248.027"/>
			</g>
		</g>
	</g>
	<g>
		<path fill="#88B6E5" d="M660.655,193.989c2.055,0,4.482,1.432,5.535,6.334c2.836,0.476,3.691,0.476,4.545,0.476h4.455
			c1.027,0,4.539,3.943,4.258,6.691c0.031,1.436-3.514,15.537-3.252,27.486c0.074,3.348,1.256,6.454,3.566,6.454
			c2.666,0,4.117-3.501,4.979-7.394c0.307,3.443,1.045,6.535,2.193,9.021c-1.863,3.621-4.465,6.26-8.111,6.26
			c-4.025,0-8.885-3.107-9.117-13.623c-0.168-7.65,1.184-16.136,3.699-26.41h-6.504h-0.943c0.018,4.659-0.27,15.057-1.658,21.988
			c-0.324,1.618-1.016,2.268-1.781,2.268c-1.609,0-3.547-2.862-3.086-5.615c0.834-4.779,0.959-14.697,0.912-20.792
			c-2.174-1.675-3.771-4.183-3.848-7.65C656.422,196.14,658.43,193.989,660.655,193.989z"/>
	</g>
	<g>
		<polygon fill="#4A637C" points="644.149,237.724 638.37,241.697 636.922,175.734 642.702,171.762 		"/>
	</g>
	<g enable-background="new    ">
		<g>
			<defs>
				<path id="SVGID_175_" d="M626.692,222.16c-1.927,1.324-3.854,2.648-5.779,3.973c-0.363,0.25-0.74,0.392-1.111,0.392
					c-0.428,0-0.859-0.121-1.297-0.601l5.779-3.973c0.438,0.479,0.869,0.6,1.297,0.6C625.954,222.551,626.329,222.41,626.692,222.16
					z"/>
			</defs>
			<clipPath id="SVGID_176_">
				<use xlink:href="#SVGID_175_"  overflow="visible"/>
			</clipPath>
			<g clip-path="url(#SVGID_176_)" enable-background="new    ">
				<path fill="#4D6681" d="M626.692,222.16l-5.779,3.973c-0.363,0.25-0.74,0.392-1.111,0.392c-0.428,0-0.859-0.121-1.297-0.601
					l5.779-3.973c0.438,0.479,0.869,0.6,1.297,0.6C625.954,222.551,626.329,222.41,626.692,222.16"/>
			</g>
		</g>
	</g>
	<g enable-background="new    ">
		<g>
			<defs>
				<path id="SVGID_177_" d="M623.165,171.253c1.928-1.324,3.854-2.648,5.781-3.973c-8.137,5.592-13.048,15.829-12.73,30.292
					c0.277,12.669,5.529,21.871,8.068,24.379l-5.781,3.973c-2.539-2.509-7.789-11.709-8.067-24.379
					C610.118,187.082,615.03,176.845,623.165,171.253z"/>
			</defs>
			<clipPath id="SVGID_178_">
				<use xlink:href="#SVGID_177_"  overflow="visible"/>
			</clipPath>
			<g clip-path="url(#SVGID_178_)" enable-background="new    ">
				<path fill="#4D6681" d="M624.284,221.951l-5.781,3.973c-2.539-2.509-7.789-11.709-8.067-24.379
					c-0.317-14.463,4.595-24.7,12.729-30.292l5.781-3.973c-8.137,5.592-13.049,15.83-12.73,30.292
					C616.493,210.242,621.745,219.444,624.284,221.951"/>
			</g>
		</g>
	</g>
	<g enable-background="new    ">
		<g>
			<defs>
				<path id="SVGID_179_" d="M642.784,246.246l-5.781,3.973c1.053-0.725,1.479-3.398,1.367-8.521l5.779-3.973
					C644.26,242.848,643.836,245.522,642.784,246.246z"/>
			</defs>
			<clipPath id="SVGID_180_">
				<use xlink:href="#SVGID_179_"  overflow="visible"/>
			</clipPath>
			<g clip-path="url(#SVGID_180_)" enable-background="new    ">
				<path fill="#4D6681" d="M642.784,246.246l-5.781,3.973c1.053-0.725,1.479-3.398,1.367-8.521l5.779-3.973
					C644.26,242.848,643.836,245.522,642.784,246.246"/>
			</g>
		</g>
	</g>
	<g>
		<path fill="#88B6E5" d="M662.602,161.604c0.514,0,1.074,2.151,1.115,3.943c0.063,2.868-0.975,6.335-3.203,6.335
			c-1.197,0-7.113-0.24-11.137-0.36l1.486,67.759c0.229,10.514-1.648,14.696-4.475,14.696c-2.141,0-5.666-4.659-5.715-6.931
			c-0.016-0.695,0.102-0.887,0.311-0.887c0.258,0,0.658,0.291,1.129,0.291c1.541,0,2.168-2.629,2.035-8.727l-1.447-65.963
			c-10.59,1.196-20.131,7.291-19.725,25.811c0.182,8.246,2.943,13.145,5.239,16.252c0.147-0.056,0.28-0.083,0.401-0.083
			c0.637,0,0.895,0.751,0.916,1.758c0.068,3.104-1.981,7.051-3.953,7.051c-0.428,0-0.858-0.12-1.297-0.6
			c-2.539-2.508-7.789-11.71-8.067-24.379c-0.503-22.943,12.151-35.253,29.962-35.253c4.111,0,12.764,0.24,14.391,0.24
			C662.024,162.559,662.346,161.604,662.602,161.604z"/>
	</g>
	<g enable-background="new    ">
		<g>
			<defs>
				<path id="SVGID_181_" d="M647.889,253.51c-1.926,1.323-3.854,2.647-5.779,3.974c-0.459,0.316-0.963,0.467-1.5,0.467
					c-2.143,0-5.666-4.658-5.716-6.931c-0.013-0.526,0.054-0.765,0.175-0.849l0,0c1.928-1.325,3.854-2.649,5.779-3.973
					c-0.121,0.084-0.186,0.321-0.174,0.849c0.049,2.272,3.574,6.931,5.715,6.931C646.926,253.977,647.428,253.826,647.889,253.51z"
					/>
			</defs>
			<clipPath id="SVGID_182_">
				<use xlink:href="#SVGID_181_"  overflow="visible"/>
			</clipPath>
			<g clip-path="url(#SVGID_182_)" enable-background="new    ">
				<path fill="#4D6681" d="M647.889,253.51l-5.779,3.974c-0.459,0.316-0.963,0.467-1.5,0.467c-2.143,0-5.666-4.658-5.716-6.931
					c-0.013-0.526,0.054-0.765,0.175-0.849l5.779-3.973c-0.121,0.084-0.186,0.321-0.174,0.849c0.049,2.272,3.574,6.931,5.715,6.931
					C646.926,253.977,647.428,253.826,647.889,253.51"/>
			</g>
		</g>
	</g>
</g>
</svg>
